<svg width="339" height="213" viewBox="0 0 339 213" fill="none" xmlns="http://www.w3.org/2000/svg">
<g filter="url(#filter0_b_291_1213)">
<rect width="339" height="191" rx="27" fill="#EFF2FF" fill-opacity="0.2"/>
<rect x="2" y="2" width="335" height="187" rx="25" stroke="#F5F5F5" stroke-opacity="0.5" stroke-width="4"/>
</g>
<rect x="115" y="176.774" width="110" height="36.2264" rx="8" fill="#4A57A5"/>
<rect x="115" y="173" width="110" height="36.2264" rx="8" fill="#F6F6F6"/>
<path d="M157.788 196.128C157.457 196.128 157.196 196.037 157.004 195.856C156.823 195.664 156.732 195.392 156.732 195.04V185.808C156.732 185.456 156.823 185.189 157.004 185.008C157.196 184.816 157.468 184.72 157.82 184.72H163.404C163.681 184.72 163.889 184.789 164.028 184.928C164.167 185.067 164.236 185.264 164.236 185.52C164.236 185.787 164.167 185.995 164.028 186.144C163.889 186.283 163.681 186.352 163.404 186.352H158.78V189.536H163.068C163.335 189.536 163.537 189.605 163.676 189.744C163.825 189.883 163.9 190.08 163.9 190.336C163.9 190.603 163.825 190.811 163.676 190.96C163.537 191.099 163.335 191.168 163.068 191.168H158.78V195.04C158.78 195.765 158.449 196.128 157.788 196.128ZM168.837 196.16C167.952 196.16 167.285 195.909 166.837 195.408C166.389 194.896 166.165 194.149 166.165 193.168V185.6C166.165 185.269 166.25 185.019 166.421 184.848C166.592 184.677 166.837 184.592 167.157 184.592C167.477 184.592 167.722 184.677 167.893 184.848C168.074 185.019 168.165 185.269 168.165 185.6V193.072C168.165 193.563 168.266 193.925 168.469 194.16C168.682 194.395 168.981 194.512 169.365 194.512C169.45 194.512 169.53 194.512 169.605 194.512C169.68 194.501 169.754 194.491 169.829 194.48C169.978 194.459 170.08 194.501 170.133 194.608C170.186 194.704 170.213 194.907 170.213 195.216C170.213 195.483 170.16 195.691 170.053 195.84C169.946 195.989 169.77 196.08 169.525 196.112C169.418 196.123 169.306 196.133 169.189 196.144C169.072 196.155 168.954 196.16 168.837 196.16ZM172.266 196.112C171.946 196.112 171.701 196.016 171.53 195.824C171.36 195.632 171.274 195.365 171.274 195.024V189.152C171.274 188.8 171.36 188.533 171.53 188.352C171.701 188.16 171.946 188.064 172.266 188.064C172.586 188.064 172.832 188.16 173.002 188.352C173.184 188.533 173.274 188.8 173.274 189.152V195.024C173.274 195.365 173.189 195.632 173.018 195.824C172.848 196.016 172.597 196.112 172.266 196.112ZM172.266 186.576C171.893 186.576 171.6 186.485 171.386 186.304C171.184 186.112 171.082 185.851 171.082 185.52C171.082 185.179 171.184 184.917 171.386 184.736C171.6 184.555 171.893 184.464 172.266 184.464C172.65 184.464 172.944 184.555 173.146 184.736C173.349 184.917 173.45 185.179 173.45 185.52C173.45 185.851 173.349 186.112 173.146 186.304C172.944 186.485 172.65 186.576 172.266 186.576ZM176.345 199.008C176.025 199.008 175.779 198.923 175.609 198.752C175.438 198.581 175.353 198.331 175.353 198V189.056C175.353 188.725 175.438 188.475 175.609 188.304C175.779 188.133 176.019 188.048 176.329 188.048C176.649 188.048 176.894 188.133 177.065 188.304C177.235 188.475 177.321 188.725 177.321 189.056V190.304L177.145 189.824C177.305 189.28 177.63 188.843 178.121 188.512C178.622 188.181 179.203 188.016 179.865 188.016C180.547 188.016 181.145 188.181 181.657 188.512C182.179 188.843 182.585 189.312 182.873 189.92C183.161 190.517 183.305 191.237 183.305 192.08C183.305 192.912 183.161 193.637 182.873 194.256C182.585 194.864 182.185 195.333 181.673 195.664C181.161 195.995 180.558 196.16 179.865 196.16C179.214 196.16 178.643 196 178.153 195.68C177.662 195.349 177.331 194.923 177.161 194.4H177.353V198C177.353 198.331 177.262 198.581 177.081 198.752C176.91 198.923 176.665 199.008 176.345 199.008ZM179.305 194.64C179.699 194.64 180.046 194.544 180.345 194.352C180.643 194.16 180.873 193.877 181.033 193.504C181.203 193.12 181.289 192.645 181.289 192.08C181.289 191.227 181.107 190.592 180.745 190.176C180.382 189.749 179.902 189.536 179.305 189.536C178.91 189.536 178.563 189.632 178.265 189.824C177.966 190.005 177.731 190.288 177.561 190.672C177.401 191.045 177.321 191.515 177.321 192.08C177.321 192.923 177.502 193.563 177.865 194C178.227 194.427 178.707 194.64 179.305 194.64Z" fill="#677CFB"/>
<defs>
<filter id="filter0_b_291_1213" x="-100" y="-100" width="539" height="391" filterUnits="userSpaceOnUse" color-interpolation-filters="sRGB">
<feFlood flood-opacity="0" result="BackgroundImageFix"/>
<feGaussianBlur in="BackgroundImageFix" stdDeviation="50"/>
<feComposite in2="SourceAlpha" operator="in" result="effect1_backgroundBlur_291_1213"/>
<feBlend mode="normal" in="SourceGraphic" in2="effect1_backgroundBlur_291_1213" result="shape"/>
</filter>
</defs>
</svg>
