<svg width="430" height="932" viewBox="0 0 430 932" fill="none" xmlns="http://www.w3.org/2000/svg">
<g clip-path="url(#clip0_289_1100)">
<rect width="430" height="932" fill="#E1E6FC"/>
<path d="M34 89C34 76.2975 44.2975 66 57 66H396C408.703 66 419 76.2975 419 89V842C419 854.703 408.703 865 396 865H57C44.2974 865 34 854.703 34 842V89Z" fill="#677CFB" fill-opacity="0.5"/>
<path d="M12 89C12 76.2975 22.2975 66 35 66H374C386.703 66 397 76.2975 397 89V842C397 854.703 386.703 865 374 865H35C22.2974 865 12 854.703 12 842V89Z" fill="#677CFB" fill-opacity="0.5"/>
<path d="M23 60C23 47.2974 33.2975 37 46 37H385C397.703 37 408 47.2975 408 60V873C408 885.703 397.703 896 385 896H46C33.2974 896 23 885.703 23 873V60Z" fill="#677CFB"/>
<path d="M462.345 837.268C529.32 904.243 524.721 1017.43 452.075 1090.07C379.428 1162.72 266.243 1167.32 199.268 1100.35C132.294 1033.37 136.892 920.185 209.538 847.538C282.185 774.892 395.37 770.294 462.345 837.268ZM241.82 1057.79C287.129 1103.1 363.699 1099.99 412.845 1050.85C461.991 1001.7 465.102 925.129 419.793 879.82C374.484 834.512 297.914 837.622 248.768 886.768C199.622 935.914 196.512 1012.48 241.82 1057.79Z" fill="url(#paint0_linear_289_1100)" fill-opacity="0.5"/>
<path d="M111.949 229.712C33.9913 274.721 -68.7823 242.659 -117.603 158.099C-166.423 73.5397 -142.803 -31.496 -64.8459 -76.5047C13.1114 -121.513 115.885 -89.451 164.705 -4.89148C213.526 79.668 189.906 184.704 111.949 229.712ZM-36.2498 -26.9748C-88.9883 3.47375 -104.967 74.531 -71.9401 131.736C-38.9128 188.941 30.6141 210.631 83.3525 180.183C136.091 149.734 152.07 78.6768 119.043 21.4718C86.0156 -35.7331 16.4887 -57.4234 -36.2498 -26.9748Z" fill="url(#paint1_linear_289_1100)" fill-opacity="0.5"/>
<path d="M-130 583.499C-130 488.783 -46.7144 412 56.0235 412C158.761 412 242.047 488.783 242.047 583.499C242.047 678.216 158.761 754.998 56.0235 754.998C-46.7145 754.998 -130 678.215 -130 583.499ZM181.869 583.499C181.869 519.423 125.526 467.479 56.0235 467.479C-13.4792 467.479 -69.8223 519.423 -69.8223 583.499C-69.8224 647.575 -13.4793 699.519 56.0235 699.519C125.526 699.519 181.869 647.575 181.869 583.499Z" fill="url(#paint2_linear_289_1100)" fill-opacity="0.5"/>
<path d="M567.757 301.655C592.271 393.144 531.697 488.867 432.459 515.457C333.222 542.048 232.902 489.437 208.387 397.948C183.873 306.459 244.448 210.737 343.685 184.146C442.922 157.556 543.243 210.166 567.757 301.655ZM266.514 382.373C283.098 444.266 350.966 479.857 418.1 461.868C485.235 443.88 526.214 379.123 509.63 317.23C493.046 255.338 425.178 219.746 358.044 237.735C290.909 255.724 249.93 320.48 266.514 382.373Z" fill="url(#paint3_linear_289_1100)" fill-opacity="0.5"/>
</g>
<defs>
<linearGradient id="paint0_linear_289_1100" x1="170.441" y1="903.679" x2="250.412" y2="1134.42" gradientUnits="userSpaceOnUse">
<stop stop-color="#8495FF"/>
<stop offset="1" stop-color="#677CFB"/>
</linearGradient>
<linearGradient id="paint1_linear_289_1100" x1="122.785" y1="-54.5925" x2="-108.704" y2="-37.9348" gradientUnits="userSpaceOnUse">
<stop stop-color="#8495FF"/>
<stop offset="1" stop-color="#677CFB"/>
</linearGradient>
<linearGradient id="paint2_linear_289_1100" x1="123.367" y1="742.947" x2="229.975" y2="523.243" gradientUnits="userSpaceOnUse">
<stop stop-color="#8495FF"/>
<stop offset="1" stop-color="#677CFB"/>
</linearGradient>
<linearGradient id="paint3_linear_289_1100" x1="281.755" y1="213.217" x2="235.644" y2="453.027" gradientUnits="userSpaceOnUse">
<stop stop-color="#8495FF"/>
<stop offset="1" stop-color="#677CFB"/>
</linearGradient>
<clipPath id="clip0_289_1100">
<rect width="430" height="932" fill="white"/>
</clipPath>
</defs>
</svg>
