<svg width="130" height="43" viewBox="0 0 130 43" fill="none" xmlns="http://www.w3.org/2000/svg">
<rect y="4.77777" width="130" height="38.2222" rx="9" fill="#4A57A5"/>
<rect width="130" height="39.1778" rx="9" fill="#677CFB"/>
<mask id="mask0_149_7639" style="mask-type:alpha" maskUnits="userSpaceOnUse" x="0" y="0" width="130" height="40">
<rect y="1.52588e-05" width="130" height="39.1778" rx="9" fill="#677CFB"/>
</mask>
<g mask="url(#mask0_149_7639)">
<path d="M93.1424 -22.1194C94.4333 -23.158 96.3776 -23.001 97.4852 -21.7687L163.15 51.2921C164.258 52.5244 164.109 54.3653 162.818 55.404L154.452 62.1351C153.161 63.1738 151.217 63.0168 150.109 61.7845L84.4444 -11.2763C83.3369 -12.5086 83.4855 -14.3496 84.7764 -15.3882L93.1424 -22.1194Z" fill="#8495FF"/>
<path d="M-22.0608 -9.11936C-20.7699 -10.158 -18.8256 -10.001 -17.7181 -8.76872L47.9467 64.2921C49.0543 65.5244 48.9056 67.3653 47.6147 68.404L39.2487 75.1351C37.9578 76.1738 36.0135 76.0168 34.906 74.7845L-30.7588 1.72367C-31.8664 0.491385 -31.7178 -1.34956 -30.4269 -2.38819L-22.0608 -9.11936Z" fill="#8495FF"/>
</g>
<path d="M25.692 25.596C25.444 25.596 25.252 25.528 25.116 25.392C24.988 25.248 24.924 25.052 24.924 24.804V17.82C24.924 17.564 24.992 17.372 25.128 17.244C25.264 17.108 25.456 17.04 25.704 17.04H28.596C29.524 17.04 30.24 17.264 30.744 17.712C31.248 18.152 31.5 18.772 31.5 19.572C31.5 20.092 31.384 20.54 31.152 20.916C30.928 21.292 30.6 21.58 30.168 21.78C29.736 21.98 29.212 22.08 28.596 22.08L28.704 21.9H29.1C29.428 21.9 29.712 21.98 29.952 22.14C30.2 22.3 30.416 22.552 30.6 22.896L31.5 24.564C31.596 24.732 31.64 24.896 31.632 25.056C31.624 25.216 31.564 25.348 31.452 25.452C31.34 25.548 31.176 25.596 30.96 25.596C30.744 25.596 30.568 25.552 30.432 25.464C30.296 25.368 30.176 25.224 30.072 25.032L28.86 22.8C28.716 22.528 28.544 22.348 28.344 22.26C28.152 22.164 27.904 22.116 27.6 22.116H26.46V24.804C26.46 25.052 26.396 25.248 26.268 25.392C26.14 25.528 25.948 25.596 25.692 25.596ZM26.46 20.976H28.332C28.884 20.976 29.3 20.864 29.58 20.64C29.868 20.408 30.012 20.064 30.012 19.608C30.012 19.16 29.868 18.824 29.58 18.6C29.3 18.368 28.884 18.252 28.332 18.252H26.46V20.976ZM34.88 25.62C34.456 25.62 34.076 25.54 33.74 25.38C33.412 25.212 33.152 24.988 32.96 24.708C32.776 24.428 32.684 24.112 32.684 23.76C32.684 23.328 32.796 22.988 33.02 22.74C33.244 22.484 33.608 22.3 34.112 22.188C34.616 22.076 35.292 22.02 36.14 22.02H36.74V22.884H36.152C35.656 22.884 35.26 22.908 34.964 22.956C34.668 23.004 34.456 23.088 34.328 23.208C34.208 23.32 34.148 23.48 34.148 23.688C34.148 23.952 34.24 24.168 34.424 24.336C34.608 24.504 34.864 24.588 35.192 24.588C35.456 24.588 35.688 24.528 35.888 24.408C36.096 24.28 36.26 24.108 36.38 23.892C36.5 23.676 36.56 23.428 36.56 23.148V21.768C36.56 21.368 36.472 21.08 36.296 20.904C36.12 20.728 35.824 20.64 35.408 20.64C35.176 20.64 34.924 20.668 34.652 20.724C34.388 20.78 34.108 20.876 33.812 21.012C33.66 21.084 33.524 21.104 33.404 21.072C33.292 21.04 33.204 20.976 33.14 20.88C33.076 20.776 33.044 20.664 33.044 20.544C33.044 20.424 33.076 20.308 33.14 20.196C33.204 20.076 33.312 19.988 33.464 19.932C33.832 19.78 34.184 19.672 34.52 19.608C34.864 19.544 35.176 19.512 35.456 19.512C36.032 19.512 36.504 19.6 36.872 19.776C37.248 19.952 37.528 20.22 37.712 20.58C37.896 20.932 37.988 21.388 37.988 21.948V24.828C37.988 25.076 37.928 25.268 37.808 25.404C37.688 25.532 37.516 25.596 37.292 25.596C37.068 25.596 36.892 25.532 36.764 25.404C36.644 25.268 36.584 25.076 36.584 24.828V24.252H36.68C36.624 24.532 36.512 24.776 36.344 24.984C36.184 25.184 35.98 25.34 35.732 25.452C35.484 25.564 35.2 25.62 34.88 25.62ZM40.2545 25.596C40.0145 25.596 39.8305 25.532 39.7025 25.404C39.5745 25.268 39.5105 25.076 39.5105 24.828V20.292C39.5105 20.044 39.5745 19.856 39.7025 19.728C39.8305 19.6 40.0105 19.536 40.2425 19.536C40.4745 19.536 40.6545 19.6 40.7825 19.728C40.9105 19.856 40.9745 20.044 40.9745 20.292V21.108L40.8425 20.808C41.0185 20.384 41.2905 20.064 41.6585 19.848C42.0345 19.624 42.4585 19.512 42.9305 19.512C43.4025 19.512 43.7905 19.6 44.0945 19.776C44.3985 19.952 44.6265 20.22 44.7785 20.58C44.9305 20.932 45.0065 21.38 45.0065 21.924V24.828C45.0065 25.076 44.9425 25.268 44.8145 25.404C44.6865 25.532 44.5025 25.596 44.2625 25.596C44.0225 25.596 43.8345 25.532 43.6985 25.404C43.5705 25.268 43.5065 25.076 43.5065 24.828V21.996C43.5065 21.54 43.4185 21.208 43.2425 21C43.0745 20.792 42.8105 20.688 42.4505 20.688C42.0105 20.688 41.6585 20.828 41.3945 21.108C41.1385 21.38 41.0105 21.744 41.0105 22.2V24.828C41.0105 25.34 40.7585 25.596 40.2545 25.596ZM48.786 25.62C48.274 25.62 47.822 25.496 47.43 25.248C47.046 25 46.746 24.648 46.53 24.192C46.314 23.728 46.206 23.184 46.206 22.56C46.206 21.928 46.314 21.388 46.53 20.94C46.746 20.484 47.046 20.132 47.43 19.884C47.822 19.636 48.274 19.512 48.786 19.512C49.274 19.512 49.698 19.632 50.058 19.872C50.426 20.112 50.674 20.428 50.802 20.82H50.67V17.7C50.67 17.452 50.734 17.264 50.862 17.136C50.99 17.008 51.174 16.944 51.414 16.944C51.654 16.944 51.838 17.008 51.966 17.136C52.102 17.264 52.17 17.452 52.17 17.7V24.828C52.17 25.076 52.106 25.268 51.978 25.404C51.85 25.532 51.666 25.596 51.426 25.596C51.186 25.596 51.002 25.532 50.874 25.404C50.746 25.268 50.682 25.076 50.682 24.828V23.892L50.814 24.252C50.694 24.668 50.45 25 50.082 25.248C49.714 25.496 49.282 25.62 48.786 25.62ZM49.206 24.48C49.502 24.48 49.762 24.408 49.986 24.264C50.21 24.12 50.382 23.908 50.502 23.628C50.63 23.34 50.694 22.984 50.694 22.56C50.694 21.92 50.558 21.444 50.286 21.132C50.014 20.812 49.654 20.652 49.206 20.652C48.91 20.652 48.65 20.724 48.426 20.868C48.202 21.004 48.026 21.216 47.898 21.504C47.778 21.784 47.718 22.136 47.718 22.56C47.718 23.192 47.854 23.672 48.126 24C48.398 24.32 48.758 24.48 49.206 24.48ZM56.4013 25.62C55.7933 25.62 55.2653 25.496 54.8173 25.248C54.3693 25 54.0213 24.648 53.7733 24.192C53.5253 23.728 53.4013 23.184 53.4013 22.56C53.4013 22.088 53.4693 21.668 53.6053 21.3C53.7493 20.924 53.9533 20.604 54.2173 20.34C54.4813 20.068 54.7973 19.864 55.1653 19.728C55.5333 19.584 55.9453 19.512 56.4013 19.512C57.0093 19.512 57.5373 19.636 57.9853 19.884C58.4333 20.132 58.7813 20.484 59.0293 20.94C59.2773 21.396 59.4013 21.936 59.4013 22.56C59.4013 23.032 59.3293 23.456 59.1853 23.832C59.0493 24.208 58.8493 24.532 58.5853 24.804C58.3213 25.068 58.0053 25.272 57.6373 25.416C57.2693 25.552 56.8573 25.62 56.4013 25.62ZM56.4013 24.48C56.6973 24.48 56.9573 24.408 57.1813 24.264C57.4053 24.12 57.5773 23.908 57.6973 23.628C57.8253 23.34 57.8893 22.984 57.8893 22.56C57.8893 21.92 57.7533 21.444 57.4813 21.132C57.2093 20.812 56.8493 20.652 56.4013 20.652C56.1053 20.652 55.8453 20.724 55.6213 20.868C55.3973 21.004 55.2213 21.216 55.0933 21.504C54.9733 21.784 54.9133 22.136 54.9133 22.56C54.9133 23.192 55.0493 23.672 55.3213 24C55.5933 24.32 55.9533 24.48 56.4013 24.48ZM61.4074 25.596C61.1674 25.596 60.9834 25.532 60.8554 25.404C60.7274 25.268 60.6634 25.076 60.6634 24.828V20.292C60.6634 20.044 60.7274 19.856 60.8554 19.728C60.9834 19.6 61.1634 19.536 61.3954 19.536C61.6274 19.536 61.8074 19.6 61.9354 19.728C62.0634 19.856 62.1274 20.044 62.1274 20.292V21.168L61.9954 20.808C62.1554 20.408 62.4034 20.092 62.7394 19.86C63.0754 19.628 63.4754 19.512 63.9394 19.512C64.4114 19.512 64.7994 19.624 65.1034 19.848C65.4074 20.072 65.6194 20.416 65.7394 20.88H65.5714C65.7314 20.456 65.9954 20.124 66.3634 19.884C66.7314 19.636 67.1554 19.512 67.6354 19.512C68.0834 19.512 68.4514 19.6 68.7394 19.776C69.0354 19.952 69.2554 20.22 69.3994 20.58C69.5434 20.932 69.6154 21.38 69.6154 21.924V24.828C69.6154 25.076 69.5474 25.268 69.4114 25.404C69.2834 25.532 69.0994 25.596 68.8594 25.596C68.6194 25.596 68.4354 25.532 68.3074 25.404C68.1794 25.268 68.1154 25.076 68.1154 24.828V21.984C68.1154 21.536 68.0394 21.208 67.8874 21C67.7434 20.792 67.4954 20.688 67.1434 20.688C66.7514 20.688 66.4434 20.828 66.2194 21.108C65.9954 21.38 65.8834 21.76 65.8834 22.248V24.828C65.8834 25.076 65.8194 25.268 65.6914 25.404C65.5634 25.532 65.3794 25.596 65.1394 25.596C64.8994 25.596 64.7114 25.532 64.5754 25.404C64.4474 25.268 64.3834 25.076 64.3834 24.828V21.984C64.3834 21.536 64.3074 21.208 64.1554 21C64.0114 20.792 63.7674 20.688 63.4234 20.688C63.0314 20.688 62.7234 20.828 62.4994 21.108C62.2754 21.38 62.1634 21.76 62.1634 22.248V24.828C62.1634 25.34 61.9114 25.596 61.4074 25.596ZM78.5006 25.62C77.6206 25.62 76.8646 25.444 76.2326 25.092C75.6086 24.732 75.1286 24.228 74.7926 23.58C74.4566 22.924 74.2886 22.152 74.2886 21.264C74.2886 20.6 74.3846 20.004 74.5766 19.476C74.7686 18.94 75.0446 18.484 75.4046 18.108C75.7646 17.724 76.2046 17.432 76.7246 17.232C77.2526 17.024 77.8446 16.92 78.5006 16.92C78.9406 16.92 79.3726 16.976 79.7966 17.088C80.2206 17.2 80.5926 17.36 80.9126 17.568C81.0806 17.672 81.1926 17.8 81.2486 17.952C81.3046 18.096 81.3166 18.24 81.2846 18.384C81.2526 18.52 81.1846 18.636 81.0806 18.732C80.9846 18.828 80.8606 18.884 80.7086 18.9C80.5646 18.908 80.4046 18.856 80.2286 18.744C79.9806 18.584 79.7126 18.468 79.4246 18.396C79.1366 18.324 78.8446 18.288 78.5486 18.288C77.9806 18.288 77.5006 18.404 77.1086 18.636C76.7166 18.868 76.4206 19.204 76.2206 19.644C76.0206 20.084 75.9206 20.624 75.9206 21.264C75.9206 21.896 76.0206 22.436 76.2206 22.884C76.4206 23.332 76.7166 23.672 77.1086 23.904C77.5006 24.136 77.9806 24.252 78.5486 24.252C78.8526 24.252 79.1526 24.216 79.4486 24.144C79.7446 24.064 80.0246 23.944 80.2886 23.784C80.4646 23.68 80.6206 23.636 80.7566 23.652C80.9006 23.66 81.0206 23.708 81.1166 23.796C81.2126 23.884 81.2766 23.996 81.3086 24.132C81.3406 24.26 81.3326 24.396 81.2846 24.54C81.2366 24.676 81.1406 24.796 80.9966 24.9C80.6766 25.132 80.2926 25.312 79.8446 25.44C79.4046 25.56 78.9566 25.62 78.5006 25.62ZM84.2979 25.62C83.8739 25.62 83.4939 25.54 83.1579 25.38C82.8299 25.212 82.5699 24.988 82.3779 24.708C82.1939 24.428 82.1019 24.112 82.1019 23.76C82.1019 23.328 82.2139 22.988 82.4379 22.74C82.6619 22.484 83.0259 22.3 83.5299 22.188C84.0339 22.076 84.7099 22.02 85.5579 22.02H86.1579V22.884H85.5699C85.0739 22.884 84.6779 22.908 84.3819 22.956C84.0859 23.004 83.8739 23.088 83.7459 23.208C83.6259 23.32 83.5659 23.48 83.5659 23.688C83.5659 23.952 83.6579 24.168 83.8419 24.336C84.0259 24.504 84.2819 24.588 84.6099 24.588C84.8739 24.588 85.1059 24.528 85.3059 24.408C85.5139 24.28 85.6779 24.108 85.7979 23.892C85.9179 23.676 85.9779 23.428 85.9779 23.148V21.768C85.9779 21.368 85.8899 21.08 85.7139 20.904C85.5379 20.728 85.2419 20.64 84.8259 20.64C84.5939 20.64 84.3419 20.668 84.0699 20.724C83.8059 20.78 83.5259 20.876 83.2299 21.012C83.0779 21.084 82.9419 21.104 82.8219 21.072C82.7099 21.04 82.6219 20.976 82.5579 20.88C82.4939 20.776 82.4619 20.664 82.4619 20.544C82.4619 20.424 82.4939 20.308 82.5579 20.196C82.6219 20.076 82.7299 19.988 82.8819 19.932C83.2499 19.78 83.6019 19.672 83.9379 19.608C84.2819 19.544 84.5939 19.512 84.8739 19.512C85.4499 19.512 85.9219 19.6 86.2899 19.776C86.6659 19.952 86.9459 20.22 87.1299 20.58C87.3139 20.932 87.4059 21.388 87.4059 21.948V24.828C87.4059 25.076 87.3459 25.268 87.2259 25.404C87.1059 25.532 86.9339 25.596 86.7099 25.596C86.4859 25.596 86.3099 25.532 86.1819 25.404C86.0619 25.268 86.0019 25.076 86.0019 24.828V24.252H86.0979C86.0419 24.532 85.9299 24.776 85.7619 24.984C85.6019 25.184 85.3979 25.34 85.1499 25.452C84.9019 25.564 84.6179 25.62 84.2979 25.62ZM89.6964 25.596C89.4484 25.596 89.2564 25.532 89.1204 25.404C88.9924 25.268 88.9284 25.076 88.9284 24.828V20.292C88.9284 20.044 88.9924 19.856 89.1204 19.728C89.2484 19.6 89.4284 19.536 89.6604 19.536C89.8924 19.536 90.0724 19.6 90.2004 19.728C90.3284 19.856 90.3924 20.044 90.3924 20.292V21.048H90.2724C90.3844 20.568 90.6044 20.204 90.9324 19.956C91.2604 19.708 91.6964 19.56 92.2404 19.512C92.4084 19.496 92.5404 19.54 92.6364 19.644C92.7404 19.74 92.8004 19.892 92.8164 20.1C92.8324 20.3 92.7844 20.464 92.6724 20.592C92.5684 20.712 92.4084 20.784 92.1924 20.808L91.9284 20.832C91.4404 20.88 91.0724 21.032 90.8244 21.288C90.5764 21.536 90.4524 21.888 90.4524 22.344V24.828C90.4524 25.076 90.3884 25.268 90.2604 25.404C90.1324 25.532 89.9444 25.596 89.6964 25.596ZM95.7899 25.62C95.2779 25.62 94.8259 25.496 94.4339 25.248C94.0499 25 93.7499 24.648 93.5339 24.192C93.3179 23.728 93.2099 23.184 93.2099 22.56C93.2099 21.928 93.3179 21.388 93.5339 20.94C93.7499 20.484 94.0499 20.132 94.4339 19.884C94.8259 19.636 95.2779 19.512 95.7899 19.512C96.2779 19.512 96.7019 19.632 97.0619 19.872C97.4299 20.112 97.6779 20.428 97.8059 20.82H97.6739V17.7C97.6739 17.452 97.7379 17.264 97.8659 17.136C97.9939 17.008 98.1779 16.944 98.4179 16.944C98.6579 16.944 98.8419 17.008 98.9699 17.136C99.1059 17.264 99.1739 17.452 99.1739 17.7V24.828C99.1739 25.076 99.1099 25.268 98.9819 25.404C98.8539 25.532 98.6699 25.596 98.4299 25.596C98.1899 25.596 98.0059 25.532 97.8779 25.404C97.7499 25.268 97.6859 25.076 97.6859 24.828V23.892L97.8179 24.252C97.6979 24.668 97.4539 25 97.0859 25.248C96.7179 25.496 96.2859 25.62 95.7899 25.62ZM96.2099 24.48C96.5059 24.48 96.7659 24.408 96.9899 24.264C97.2139 24.12 97.3859 23.908 97.5059 23.628C97.6339 23.34 97.6979 22.984 97.6979 22.56C97.6979 21.92 97.5619 21.444 97.2899 21.132C97.0179 20.812 96.6579 20.652 96.2099 20.652C95.9139 20.652 95.6539 20.724 95.4299 20.868C95.2059 21.004 95.0299 21.216 94.9019 21.504C94.7819 21.784 94.7219 22.136 94.7219 22.56C94.7219 23.192 94.8579 23.672 95.1299 24C95.4019 24.32 95.7619 24.48 96.2099 24.48ZM102.877 25.62C102.533 25.62 102.169 25.584 101.785 25.512C101.401 25.44 101.057 25.316 100.753 25.14C100.625 25.06 100.533 24.968 100.477 24.864C100.429 24.752 100.409 24.644 100.417 24.54C100.433 24.428 100.473 24.332 100.537 24.252C100.609 24.172 100.697 24.12 100.801 24.096C100.913 24.072 101.033 24.092 101.161 24.156C101.481 24.308 101.781 24.416 102.061 24.48C102.341 24.536 102.617 24.564 102.889 24.564C103.273 24.564 103.557 24.5 103.741 24.372C103.933 24.236 104.029 24.06 104.029 23.844C104.029 23.66 103.965 23.52 103.837 23.424C103.717 23.32 103.533 23.244 103.285 23.196L102.085 22.968C101.589 22.872 101.209 22.692 100.945 22.428C100.689 22.156 100.561 21.808 100.561 21.384C100.561 21 100.665 20.668 100.873 20.388C101.089 20.108 101.385 19.892 101.761 19.74C102.137 19.588 102.569 19.512 103.057 19.512C103.409 19.512 103.737 19.552 104.041 19.632C104.353 19.704 104.653 19.82 104.941 19.98C105.061 20.044 105.141 20.128 105.181 20.232C105.229 20.336 105.241 20.444 105.217 20.556C105.193 20.66 105.145 20.756 105.073 20.844C105.001 20.924 104.909 20.976 104.797 21C104.693 21.016 104.573 20.992 104.437 20.928C104.189 20.8 103.949 20.708 103.717 20.652C103.493 20.596 103.277 20.568 103.069 20.568C102.677 20.568 102.385 20.636 102.193 20.772C102.009 20.908 101.917 21.088 101.917 21.312C101.917 21.48 101.973 21.62 102.085 21.732C102.197 21.844 102.369 21.92 102.601 21.96L103.801 22.188C104.321 22.284 104.713 22.46 104.977 22.716C105.249 22.972 105.385 23.316 105.385 23.748C105.385 24.332 105.157 24.792 104.701 25.128C104.245 25.456 103.637 25.62 102.877 25.62Z" fill="#F5F5F5"/>
</svg>
