<svg width="110" height="40" viewBox="0 0 110 40" fill="none" xmlns="http://www.w3.org/2000/svg">
<rect y="3.77356" width="110" height="36.2264" rx="8" fill="#4A57A5"/>
<rect width="110" height="36.2264" rx="8" fill="#677CFB"/>
<path d="M28.82 23C28.468 23 28.196 22.9093 28.004 22.728C27.8227 22.536 27.732 22.264 27.732 21.912V12.808C27.732 12.456 27.8227 12.1893 28.004 12.008C28.196 11.816 28.468 11.72 28.82 11.72H34.532C34.7987 11.72 35.0013 11.7893 35.14 11.928C35.2893 12.0667 35.364 12.264 35.364 12.52C35.364 12.7867 35.2893 12.9947 35.14 13.144C35.0013 13.2827 34.7987 13.352 34.532 13.352H29.7V16.456H34.18C34.4573 16.456 34.6653 16.5253 34.804 16.664C34.9427 16.8027 35.012 17.0053 35.012 17.272C35.012 17.5387 34.9427 17.7413 34.804 17.88C34.6653 18.0187 34.4573 18.088 34.18 18.088H29.7V21.368H34.532C34.7987 21.368 35.0013 21.4373 35.14 21.576C35.2893 21.7147 35.364 21.9173 35.364 22.184C35.364 22.4507 35.2893 22.6533 35.14 22.792C35.0013 22.9307 34.7987 23 34.532 23H28.82ZM37.6309 23.08C37.3962 23.08 37.1989 23.016 37.0389 22.888C36.8895 22.7493 36.8095 22.5733 36.7989 22.36C36.7989 22.1467 36.8895 21.9227 37.0709 21.688L39.6629 18.488V19.432L37.2309 16.44C37.0389 16.2053 36.9482 15.9813 36.9589 15.768C36.9695 15.5547 37.0495 15.384 37.1989 15.256C37.3589 15.1173 37.5562 15.048 37.7909 15.048C38.0362 15.048 38.2389 15.0907 38.3989 15.176C38.5695 15.2613 38.7242 15.3947 38.8629 15.576L40.7829 18.04H40.0789L42.0149 15.576C42.1642 15.3947 42.3189 15.2613 42.4789 15.176C42.6389 15.0907 42.8362 15.048 43.0709 15.048C43.3162 15.048 43.5135 15.1173 43.6629 15.256C43.8122 15.3947 43.8869 15.5707 43.8869 15.784C43.8975 15.9973 43.8069 16.2213 43.6149 16.456L41.1989 19.416V18.52L43.7909 21.688C43.9829 21.912 44.0735 22.1307 44.0629 22.344C44.0522 22.5573 43.9669 22.7333 43.8069 22.872C43.6575 23.0107 43.4602 23.08 43.2149 23.08C42.9802 23.08 42.7829 23.0373 42.6229 22.952C42.4629 22.8667 42.3082 22.7333 42.1589 22.552L40.0789 19.928H40.7509L38.6869 22.552C38.5482 22.7227 38.3989 22.856 38.2389 22.952C38.0789 23.0373 37.8762 23.08 37.6309 23.08ZM46.8133 26.008C46.4933 26.008 46.2479 25.9227 46.0773 25.752C45.9066 25.5813 45.8213 25.3307 45.8213 25V16.056C45.8213 15.7253 45.9066 15.4747 46.0773 15.304C46.2479 15.1333 46.4879 15.048 46.7973 15.048C47.1173 15.048 47.3626 15.1333 47.5333 15.304C47.7039 15.4747 47.7893 15.7253 47.7893 16.056V17.304L47.6133 16.824C47.7733 16.28 48.0986 15.8427 48.5893 15.512C49.0906 15.1813 49.6719 15.016 50.3333 15.016C51.0159 15.016 51.6133 15.1813 52.1253 15.512C52.6479 15.8427 53.0533 16.312 53.3413 16.92C53.6293 17.5173 53.7733 18.2373 53.7733 19.08C53.7733 19.912 53.6293 20.6373 53.3413 21.256C53.0533 21.864 52.6533 22.3333 52.1413 22.664C51.6293 22.9947 51.0266 23.16 50.3333 23.16C49.6826 23.16 49.1119 23 48.6213 22.68C48.1306 22.3493 47.7999 21.9227 47.6293 21.4H47.8213V25C47.8213 25.3307 47.7306 25.5813 47.5493 25.752C47.3786 25.9227 47.1333 26.008 46.8133 26.008ZM49.7733 21.64C50.1679 21.64 50.5146 21.544 50.8133 21.352C51.1119 21.16 51.3413 20.8773 51.5013 20.504C51.6719 20.12 51.7573 19.6453 51.7573 19.08C51.7573 18.2267 51.5759 17.592 51.2133 17.176C50.8506 16.7493 50.3706 16.536 49.7733 16.536C49.3786 16.536 49.0319 16.632 48.7333 16.824C48.4346 17.0053 48.1999 17.288 48.0293 17.672C47.8693 18.0453 47.7893 18.5147 47.7893 19.08C47.7893 19.9227 47.9706 20.5627 48.3333 21C48.6959 21.4267 49.1759 21.64 49.7733 21.64ZM58.087 23.16C57.2017 23.16 56.535 22.9093 56.087 22.408C55.639 21.896 55.415 21.1493 55.415 20.168V12.6C55.415 12.2693 55.5003 12.0187 55.671 11.848C55.8417 11.6773 56.087 11.592 56.407 11.592C56.727 11.592 56.9723 11.6773 57.143 11.848C57.3243 12.0187 57.415 12.2693 57.415 12.6V20.072C57.415 20.5627 57.5163 20.9253 57.719 21.16C57.9323 21.3947 58.231 21.512 58.615 21.512C58.7003 21.512 58.7803 21.512 58.855 21.512C58.9297 21.5013 59.0043 21.4907 59.079 21.48C59.2283 21.4587 59.3297 21.5013 59.383 21.608C59.4363 21.704 59.463 21.9067 59.463 22.216C59.463 22.4827 59.4097 22.6907 59.303 22.84C59.1963 22.9893 59.0203 23.08 58.775 23.112C58.6683 23.1227 58.5563 23.1333 58.439 23.144C58.3217 23.1547 58.2043 23.16 58.087 23.16ZM64.0143 23.16C63.2036 23.16 62.4996 22.9947 61.9023 22.664C61.3049 22.3333 60.8409 21.864 60.5103 21.256C60.1796 20.6373 60.0143 19.912 60.0143 19.08C60.0143 18.4507 60.1049 17.8907 60.2863 17.4C60.4783 16.8987 60.7503 16.472 61.1023 16.12C61.4543 15.7573 61.8756 15.4853 62.3663 15.304C62.8569 15.112 63.4063 15.016 64.0143 15.016C64.8249 15.016 65.5289 15.1813 66.1263 15.512C66.7236 15.8427 67.1876 16.312 67.5183 16.92C67.8489 17.528 68.0143 18.248 68.0143 19.08C68.0143 19.7093 67.9183 20.2747 67.7263 20.776C67.5449 21.2773 67.2783 21.7093 66.9263 22.072C66.5743 22.424 66.1529 22.696 65.6623 22.888C65.1716 23.0693 64.6223 23.16 64.0143 23.16ZM64.0143 21.64C64.4089 21.64 64.7556 21.544 65.0543 21.352C65.3529 21.16 65.5823 20.8773 65.7423 20.504C65.9129 20.12 65.9983 19.6453 65.9983 19.08C65.9983 18.2267 65.8169 17.592 65.4543 17.176C65.0916 16.7493 64.6116 16.536 64.0143 16.536C63.6196 16.536 63.2729 16.632 62.9743 16.824C62.6756 17.0053 62.4409 17.288 62.2703 17.672C62.1103 18.0453 62.0303 18.5147 62.0303 19.08C62.0303 19.9227 62.2116 20.5627 62.5743 21C62.9369 21.4267 63.4169 21.64 64.0143 21.64ZM70.689 23.128C70.3583 23.128 70.1023 23.0427 69.921 22.872C69.7503 22.6907 69.665 22.4347 69.665 22.104V16.056C69.665 15.7253 69.7503 15.4747 69.921 15.304C70.0917 15.1333 70.3317 15.048 70.641 15.048C70.9503 15.048 71.1903 15.1333 71.361 15.304C71.5317 15.4747 71.617 15.7253 71.617 16.056V17.064H71.457C71.6063 16.424 71.8997 15.9387 72.337 15.608C72.7743 15.2773 73.3557 15.08 74.081 15.016C74.305 14.9947 74.481 15.0533 74.609 15.192C74.7477 15.32 74.8277 15.5227 74.849 15.8C74.8703 16.0667 74.8063 16.2853 74.657 16.456C74.5183 16.616 74.305 16.712 74.017 16.744L73.665 16.776C73.0143 16.84 72.5237 17.0427 72.193 17.384C71.8623 17.7147 71.697 18.184 71.697 18.792V22.104C71.697 22.4347 71.6117 22.6907 71.441 22.872C71.2703 23.0427 71.0197 23.128 70.689 23.128ZM79.6616 23.16C78.7763 23.16 78.0136 22.9947 77.3736 22.664C76.7336 22.3333 76.2376 21.864 75.8856 21.256C75.5443 20.648 75.3736 19.928 75.3736 19.096C75.3736 18.2853 75.539 17.576 75.8696 16.968C76.211 16.36 76.675 15.8853 77.2616 15.544C77.859 15.192 78.5363 15.016 79.2936 15.016C79.8483 15.016 80.3443 15.1067 80.7816 15.288C81.2296 15.4693 81.6083 15.7307 81.9176 16.072C82.2376 16.4133 82.4776 16.8293 82.6376 17.32C82.8083 17.8 82.8936 18.344 82.8936 18.952C82.8936 19.144 82.8243 19.2933 82.6856 19.4C82.5576 19.496 82.371 19.544 82.1256 19.544H76.9896V18.392H81.4856L81.2296 18.632C81.2296 18.1413 81.155 17.7307 81.0056 17.4C80.867 17.0693 80.659 16.8187 80.3816 16.648C80.115 16.4667 79.779 16.376 79.3736 16.376C78.9256 16.376 78.5416 16.4827 78.2216 16.696C77.9123 16.8987 77.6723 17.192 77.5016 17.576C77.3416 17.9493 77.2616 18.3973 77.2616 18.92V19.032C77.2616 19.9067 77.4643 20.5627 77.8696 21C78.2856 21.4267 78.8936 21.64 79.6936 21.64C79.971 21.64 80.2803 21.608 80.6216 21.544C80.9736 21.4693 81.3043 21.3467 81.6136 21.176C81.8376 21.048 82.035 20.9947 82.2056 21.016C82.3763 21.0267 82.5096 21.0853 82.6056 21.192C82.7123 21.2987 82.7763 21.432 82.7976 21.592C82.819 21.7413 82.787 21.896 82.7016 22.056C82.627 22.216 82.4936 22.3547 82.3016 22.472C81.9283 22.7067 81.4963 22.8827 81.0056 23C80.5256 23.1067 80.0776 23.16 79.6616 23.16Z" fill="white"/>
</svg>
