<svg width="430" height="932" viewBox="0 0 430 932" fill="none" xmlns="http://www.w3.org/2000/svg">
<g clip-path="url(#clip0_252_1452)">
<rect width="430" height="932" fill="#E1E6FC"/>
<path d="M34 89C34 76.2975 44.2975 66 57 66H396C408.703 66 419 76.2975 419 89V842C419 854.703 408.703 865 396 865H57C44.2974 865 34 854.703 34 842V89Z" fill="#FF9130" fill-opacity="0.5"/>
<path d="M12 89C12 76.2975 22.2975 66 35 66H374C386.703 66 397 76.2975 397 89V842C397 854.703 386.703 865 374 865H35C22.2974 865 12 854.703 12 842V89Z" fill="#FF9130" fill-opacity="0.5"/>
<path d="M408 61C408 48.2975 397.703 38 385 38H46C33.2975 38 23 48.2975 23 61V870C23 882.703 33.2975 893 46 893H385C397.703 893 408 882.703 408 870V61Z" fill="#FF9130"/>
<path d="M130.345 837.268C197.32 904.243 192.722 1017.43 120.075 1090.07C47.4282 1162.72 -65.7572 1167.32 -132.732 1100.35C-199.706 1033.37 -195.108 920.185 -122.462 847.538C-49.8149 774.892 63.3705 770.294 130.345 837.268ZM-90.1798 1057.79C-44.8712 1103.1 31.6993 1099.99 80.8452 1050.85C129.991 1001.7 133.102 925.129 87.793 879.82C42.4844 834.512 -34.0861 837.622 -83.2319 886.768C-132.378 935.914 -135.488 1012.48 -90.1798 1057.79Z" fill="url(#paint0_linear_252_1452)" fill-opacity="0.5"/>
<path d="M469.948 229.712C391.991 274.721 289.218 242.659 240.397 158.099C191.577 73.5397 215.197 -31.496 293.154 -76.5047C371.111 -121.513 473.885 -89.451 522.705 -4.89148C571.526 79.668 547.906 184.704 469.948 229.712ZM321.75 -26.9748C269.012 3.47375 253.032 74.531 286.06 131.736C319.087 188.941 388.614 210.631 441.352 180.183C494.091 149.734 510.07 78.6768 477.043 21.4718C444.015 -35.7331 374.489 -57.4234 321.75 -26.9748Z" fill="url(#paint1_linear_252_1452)" fill-opacity="0.5"/>
<path d="M176 609.499C176 514.783 259.285 438 362.023 438C464.761 438 548.047 514.783 548.047 609.499C548.047 704.216 464.761 780.998 362.023 780.998C259.285 780.998 176 704.215 176 609.499ZM487.869 609.499C487.869 545.423 431.526 493.479 362.023 493.479C292.521 493.479 236.178 545.423 236.178 609.499C236.178 673.575 292.521 725.519 362.023 725.519C431.526 725.519 487.869 673.575 487.869 609.499Z" fill="url(#paint2_linear_252_1452)" fill-opacity="0.5"/>
<path d="M190.757 301.655C215.271 393.144 154.697 488.867 55.4593 515.457C-43.7779 542.048 -144.098 489.437 -168.613 397.948C-193.127 306.459 -132.552 210.737 -33.3151 184.146C65.9221 157.556 166.243 210.166 190.757 301.655ZM-110.486 382.373C-93.9015 444.266 -26.0342 479.857 41.1003 461.869C108.235 443.88 149.214 379.123 132.63 317.231C116.046 255.338 48.1784 219.746 -18.9561 237.735C-86.0906 255.724 -127.07 320.48 -110.486 382.373Z" fill="url(#paint3_linear_252_1452)" fill-opacity="0.5"/>
</g>
<defs>
<linearGradient id="paint0_linear_252_1452" x1="-161.559" y1="903.679" x2="-81.5876" y2="1134.42" gradientUnits="userSpaceOnUse">
<stop stop-color="#FF7700"/>
<stop offset="1" stop-color="#FF9130"/>
</linearGradient>
<linearGradient id="paint1_linear_252_1452" x1="480.785" y1="-54.5925" x2="249.296" y2="-37.9348" gradientUnits="userSpaceOnUse">
<stop stop-color="#FF9130"/>
<stop offset="1" stop-color="#FF7700"/>
</linearGradient>
<linearGradient id="paint2_linear_252_1452" x1="429.367" y1="768.947" x2="535.974" y2="549.243" gradientUnits="userSpaceOnUse">
<stop stop-color="#FF9130"/>
<stop offset="1" stop-color="#FF7700"/>
</linearGradient>
<linearGradient id="paint3_linear_252_1452" x1="-95.2448" y1="213.217" x2="-141.356" y2="453.027" gradientUnits="userSpaceOnUse">
<stop stop-color="#FF7700"/>
<stop offset="1" stop-color="#FF9130"/>
</linearGradient>
<clipPath id="clip0_252_1452">
<rect width="430" height="932" fill="white"/>
</clipPath>
</defs>
</svg>
