<svg width="110" height="40" viewBox="0 0 110 40" fill="none" xmlns="http://www.w3.org/2000/svg">
<rect y="3.77356" width="110" height="36.2264" rx="8" fill="#4A57A5"/>
<rect width="110" height="36.2264" rx="8" fill="#F6F6F6"/>
<path d="M36.756 23.128C36.4253 23.128 36.1693 23.0373 35.988 22.856C35.8173 22.664 35.732 22.4027 35.732 22.072V12.76C35.732 12.4187 35.8227 12.1627 36.004 11.992C36.1853 11.8107 36.4413 11.72 36.772 11.72H40.628C41.8653 11.72 42.82 12.0187 43.492 12.616C44.164 13.2027 44.5 14.0293 44.5 15.096C44.5 15.7893 44.3453 16.3867 44.036 16.888C43.7373 17.3893 43.3 17.7733 42.724 18.04C42.148 18.3067 41.4493 18.44 40.628 18.44L40.772 18.2H41.3C41.7373 18.2 42.116 18.3067 42.436 18.52C42.7667 18.7333 43.0547 19.0693 43.3 19.528L44.5 21.752C44.628 21.976 44.6867 22.1947 44.676 22.408C44.6653 22.6213 44.5853 22.7973 44.436 22.936C44.2867 23.064 44.068 23.128 43.78 23.128C43.492 23.128 43.2573 23.0693 43.076 22.952C42.8947 22.824 42.7347 22.632 42.596 22.376L40.98 19.4C40.788 19.0373 40.5587 18.7973 40.292 18.68C40.036 18.552 39.7053 18.488 39.3 18.488H37.78V22.072C37.78 22.4027 37.6947 22.664 37.524 22.856C37.3533 23.0373 37.0973 23.128 36.756 23.128ZM37.78 16.968H40.276C41.012 16.968 41.5667 16.8187 41.94 16.52C42.324 16.2107 42.516 15.752 42.516 15.144C42.516 14.5467 42.324 14.0987 41.94 13.8C41.5667 13.4907 41.012 13.336 40.276 13.336H37.78V16.968ZM50.1616 23.16C49.2763 23.16 48.5136 22.9947 47.8736 22.664C47.2336 22.3333 46.7376 21.864 46.3856 21.256C46.0443 20.648 45.8736 19.928 45.8736 19.096C45.8736 18.2853 46.039 17.576 46.3696 16.968C46.711 16.36 47.175 15.8853 47.7616 15.544C48.359 15.192 49.0363 15.016 49.7936 15.016C50.3483 15.016 50.8443 15.1067 51.2816 15.288C51.7296 15.4693 52.1083 15.7307 52.4176 16.072C52.7376 16.4133 52.9776 16.8293 53.1376 17.32C53.3083 17.8 53.3936 18.344 53.3936 18.952C53.3936 19.144 53.3243 19.2933 53.1856 19.4C53.0576 19.496 52.871 19.544 52.6256 19.544H47.4896V18.392H51.9856L51.7296 18.632C51.7296 18.1413 51.655 17.7307 51.5056 17.4C51.367 17.0693 51.159 16.8187 50.8816 16.648C50.615 16.4667 50.279 16.376 49.8736 16.376C49.4256 16.376 49.0416 16.4827 48.7216 16.696C48.4123 16.8987 48.1723 17.192 48.0016 17.576C47.8416 17.9493 47.7616 18.3973 47.7616 18.92V19.032C47.7616 19.9067 47.9643 20.5627 48.3696 21C48.7856 21.4267 49.3936 21.64 50.1936 21.64C50.471 21.64 50.7803 21.608 51.1216 21.544C51.4736 21.4693 51.8043 21.3467 52.1136 21.176C52.3376 21.048 52.535 20.9947 52.7056 21.016C52.8763 21.0267 53.0096 21.0853 53.1056 21.192C53.2123 21.2987 53.2763 21.432 53.2976 21.592C53.319 21.7413 53.287 21.896 53.2016 22.056C53.127 22.216 52.9936 22.3547 52.8016 22.472C52.4283 22.7067 51.9963 22.8827 51.5056 23C51.0256 23.1067 50.5776 23.16 50.1616 23.16ZM58.5303 23.16C57.8369 23.16 57.2556 23.0427 56.7863 22.808C56.3276 22.5733 55.9863 22.232 55.7623 21.784C55.5383 21.3253 55.4263 20.76 55.4263 20.088V16.68H54.5943C54.3383 16.68 54.1409 16.616 54.0023 16.488C53.8636 16.3493 53.7942 16.1627 53.7942 15.928C53.7942 15.6827 53.8636 15.496 54.0023 15.368C54.1409 15.24 54.3383 15.176 54.5943 15.176H55.4263V13.72C55.4263 13.3893 55.5116 13.1387 55.6823 12.968C55.8636 12.7973 56.1143 12.712 56.4343 12.712C56.7543 12.712 56.9996 12.7973 57.1703 12.968C57.3409 13.1387 57.4263 13.3893 57.4263 13.72V15.176H59.1223C59.3783 15.176 59.5756 15.24 59.7143 15.368C59.8529 15.496 59.9223 15.6827 59.9223 15.928C59.9223 16.1627 59.8529 16.3493 59.7143 16.488C59.5756 16.616 59.3783 16.68 59.1223 16.68H57.4263V19.976C57.4263 20.488 57.5383 20.872 57.7623 21.128C57.9863 21.384 58.3489 21.512 58.8503 21.512C59.0316 21.512 59.1916 21.496 59.3303 21.464C59.4689 21.432 59.5916 21.4107 59.6983 21.4C59.8263 21.3893 59.9329 21.432 60.0183 21.528C60.1036 21.6133 60.1463 21.7947 60.1463 22.072C60.1463 22.2853 60.1089 22.4773 60.0343 22.648C59.9703 22.808 59.8476 22.92 59.6663 22.984C59.5276 23.0267 59.3463 23.064 59.1223 23.096C58.8983 23.1387 58.7009 23.16 58.5303 23.16ZM62.1109 23.128C61.7802 23.128 61.5242 23.0427 61.3429 22.872C61.1722 22.6907 61.0869 22.4347 61.0869 22.104V16.056C61.0869 15.7253 61.1722 15.4747 61.3429 15.304C61.5135 15.1333 61.7535 15.048 62.0629 15.048C62.3722 15.048 62.6122 15.1333 62.7829 15.304C62.9535 15.4747 63.0389 15.7253 63.0389 16.056V17.064H62.8789C63.0282 16.424 63.3215 15.9387 63.7589 15.608C64.1962 15.2773 64.7775 15.08 65.5029 15.016C65.7269 14.9947 65.9029 15.0533 66.0309 15.192C66.1695 15.32 66.2495 15.5227 66.2709 15.8C66.2922 16.0667 66.2282 16.2853 66.0789 16.456C65.9402 16.616 65.7269 16.712 65.4389 16.744L65.0869 16.776C64.4362 16.84 63.9455 17.0427 63.6149 17.384C63.2842 17.7147 63.1189 18.184 63.1189 18.792V22.104C63.1189 22.4347 63.0335 22.6907 62.8629 22.872C62.6922 23.0427 62.4415 23.128 62.1109 23.128ZM69.8209 26.008C69.5862 26.008 69.3942 25.944 69.2449 25.816C69.0955 25.6987 69.0049 25.5387 68.9729 25.336C68.9515 25.1333 68.9889 24.92 69.0849 24.696L70.1729 22.28V23.112L67.2609 16.376C67.1649 16.1413 67.1329 15.9227 67.1649 15.72C67.1969 15.5173 67.2929 15.3573 67.4529 15.24C67.6235 15.112 67.8529 15.048 68.1409 15.048C68.3862 15.048 68.5835 15.1067 68.7329 15.224C68.8822 15.3307 69.0155 15.5387 69.1329 15.848L71.2929 21.24H70.8129L73.0209 15.832C73.1382 15.5333 73.2769 15.3307 73.4369 15.224C73.5969 15.1067 73.8102 15.048 74.0769 15.048C74.3115 15.048 74.4982 15.112 74.6369 15.24C74.7755 15.3573 74.8609 15.5173 74.8929 15.72C74.9249 15.912 74.8875 16.1253 74.7809 16.36L70.8929 25.24C70.7542 25.5387 70.6049 25.7413 70.4449 25.848C70.2849 25.9547 70.0769 26.008 69.8209 26.008Z" fill="#677CFB"/>
</svg>
