<svg width="158" height="149" viewBox="0 0 158 149" fill="none" xmlns="http://www.w3.org/2000/svg">
<rect x="18.4397" width="117.147" height="142" rx="12" fill="#FF8A82" fill-opacity="0.5"/>
<rect x="6.50806" y="7" width="141.01" height="142" rx="12" fill="#FF8A82" fill-opacity="0.5"/>
<rect y="15" width="157.28" height="134" rx="12" fill="#F07067"/>
<mask id="mask0_434_531" style="mask-type:alpha" maskUnits="userSpaceOnUse" x="0" y="15" width="158" height="134">
<rect y="15" width="157.28" height="134" rx="12" fill="#F07067"/>
</mask>
<g mask="url(#mask0_434_531)">
<path d="M258.156 161.5C258.156 212.586 213.235 254 157.822 254C102.41 254 57.4885 212.586 57.4885 161.5C57.4885 110.414 102.41 69 157.822 69C213.235 69 258.156 110.414 258.156 161.5ZM89.946 161.5C89.946 196.06 120.335 224.077 157.822 224.077C195.309 224.077 225.699 196.06 225.699 161.5C225.699 126.94 195.309 98.9233 157.822 98.9233C120.335 98.9233 89.946 126.94 89.946 161.5Z" fill="url(#paint0_linear_434_531)"/>
<path d="M78.6678 7.5C78.6678 58.5863 33.7467 100 -21.6661 100C-77.079 100 -122 58.5863 -122 7.5C-122 -43.5863 -77.079 -85 -21.6661 -85C33.7467 -85 78.6678 -43.5863 78.6678 7.5ZM-89.5425 7.5C-89.5425 42.0602 -59.1532 70.0767 -21.6661 70.0767C15.821 70.0767 46.2103 42.0602 46.2103 7.5C46.2103 -27.0602 15.821 -55.0767 -21.6661 -55.0767C-59.1532 -55.0767 -89.5425 -27.0602 -89.5425 7.5Z" fill="url(#paint1_linear_434_531)" fill-opacity="0.4"/>
<rect x="115" y="21" width="7" height="4" rx="2" fill="#FF8A82" fill-opacity="0.4"/>
<rect x="125" y="21" width="20" height="4" rx="2" fill="#FF8A82" fill-opacity="0.4"/>
<rect x="19" y="28" width="41" height="21" rx="5" fill="#F07067" stroke="#FF8A82" stroke-width="2"/>
<mask id="mask1_434_531" style="mask-type:alpha" maskUnits="userSpaceOnUse" x="18" y="27" width="44" height="23">
<rect x="19" y="28" width="42" height="21" rx="8" fill="#F07067" stroke="#FF9130" stroke-width="2"/>
</mask>
<g mask="url(#mask1_434_531)">
<rect x="34.0178" y="23" width="5.31141" height="28.3096" transform="rotate(45 34.0178 23)" fill="#FF8A82" fill-opacity="0.4"/>
<rect x="73.0178" y="29" width="5.31141" height="28.3096" transform="rotate(45 73.0178 29)" fill="#FF8A82" fill-opacity="0.4"/>
<path d="M27.37 42.08C27.1833 42.08 27.04 42.0267 26.94 41.92C26.84 41.8133 26.79 41.6667 26.79 41.48V35.47C26.79 35.2767 26.8433 35.13 26.95 35.03C27.0567 34.9233 27.2033 34.87 27.39 34.87C27.5567 34.87 27.6867 34.9033 27.78 34.97C27.88 35.03 27.97 35.1367 28.05 35.29L30.52 39.86H30.2L32.67 35.29C32.75 35.1367 32.8367 35.03 32.93 34.97C33.0233 34.9033 33.1533 34.87 33.32 34.87C33.5067 34.87 33.65 34.9233 33.75 35.03C33.85 35.13 33.9 35.2767 33.9 35.47V41.48C33.9 41.6667 33.85 41.8133 33.75 41.92C33.6567 42.0267 33.5133 42.08 33.32 42.08C33.1333 42.08 32.99 42.0267 32.89 41.92C32.79 41.8133 32.74 41.6667 32.74 41.48V36.85H32.96L30.86 40.68C30.7933 40.7933 30.7233 40.8767 30.65 40.93C30.5767 40.9833 30.4767 41.01 30.35 41.01C30.2233 41.01 30.12 40.9833 30.04 40.93C29.96 40.87 29.89 40.7867 29.83 40.68L27.71 36.84H27.95V41.48C27.95 41.6667 27.9 41.8133 27.8 41.92C27.7067 42.0267 27.5633 42.08 27.37 42.08ZM38.7316 42.1C37.9983 42.1 37.3683 41.9533 36.8416 41.66C36.3216 41.36 35.9216 40.94 35.6416 40.4C35.3616 39.8533 35.2216 39.21 35.2216 38.47C35.2216 37.9167 35.3016 37.42 35.4616 36.98C35.6216 36.5333 35.8516 36.1533 36.1516 35.84C36.4516 35.52 36.8183 35.2767 37.2516 35.11C37.6916 34.9367 38.185 34.85 38.7316 34.85C39.0983 34.85 39.4583 34.8967 39.8116 34.99C40.165 35.0833 40.475 35.2167 40.7416 35.39C40.8816 35.4767 40.975 35.5833 41.0216 35.71C41.0683 35.83 41.0783 35.95 41.0516 36.07C41.025 36.1833 40.9683 36.28 40.8816 36.36C40.8016 36.44 40.6983 36.4867 40.5716 36.5C40.4516 36.5067 40.3183 36.4633 40.1716 36.37C39.965 36.2367 39.7416 36.14 39.5016 36.08C39.2616 36.02 39.0183 35.99 38.7716 35.99C38.2983 35.99 37.8983 36.0867 37.5716 36.28C37.245 36.4733 36.9983 36.7533 36.8316 37.12C36.665 37.4867 36.5816 37.9367 36.5816 38.47C36.5816 38.9967 36.665 39.4467 36.8316 39.82C36.9983 40.1933 37.245 40.4767 37.5716 40.67C37.8983 40.8633 38.2983 40.96 38.7716 40.96C39.025 40.96 39.275 40.93 39.5216 40.87C39.7683 40.8033 40.0016 40.7033 40.2216 40.57C40.3683 40.4833 40.4983 40.4467 40.6116 40.46C40.7316 40.4667 40.8316 40.5067 40.9116 40.58C40.9916 40.6533 41.045 40.7467 41.0716 40.86C41.0983 40.9667 41.0916 41.08 41.0516 41.2C41.0116 41.3133 40.9316 41.4133 40.8116 41.5C40.545 41.6933 40.225 41.8433 39.8516 41.95C39.485 42.05 39.1116 42.1 38.7316 42.1ZM47.8839 43.13C47.9772 43.2767 48.0139 43.41 47.9939 43.53C47.9739 43.65 47.9206 43.75 47.8339 43.83C47.7472 43.9167 47.6406 43.97 47.5139 43.99C47.3872 44.0167 47.2606 44.0033 47.1339 43.95C47.0072 43.9033 46.9006 43.81 46.8139 43.67L46.1239 42.56C46.0306 42.4067 45.9039 42.29 45.7439 42.21C45.5906 42.1367 45.4006 42.1 45.1739 42.1L46.1639 41.71C46.4772 41.71 46.7272 41.7667 46.9139 41.88C47.1006 41.9867 47.2806 42.1767 47.4539 42.45L47.8839 43.13ZM45.1839 42.1C44.5039 42.1 43.9072 41.95 43.3939 41.65C42.8872 41.35 42.4939 40.93 42.2139 40.39C41.9339 39.8433 41.7939 39.2033 41.7939 38.47C41.7939 37.9167 41.8739 37.42 42.0339 36.98C42.1939 36.5333 42.4206 36.1533 42.7139 35.84C43.0139 35.52 43.3706 35.2767 43.7839 35.11C44.2039 34.9367 44.6706 34.85 45.1839 34.85C45.8706 34.85 46.4672 35 46.9739 35.3C47.4806 35.5933 47.8739 36.01 48.1539 36.55C48.4339 37.09 48.5739 37.7267 48.5739 38.46C48.5739 39.0133 48.4939 39.5133 48.3339 39.96C48.1739 40.4067 47.9439 40.79 47.6439 41.11C47.3506 41.43 46.9939 41.6767 46.5739 41.85C46.1606 42.0167 45.6972 42.1 45.1839 42.1ZM45.1839 41C45.6172 41 45.9839 40.9 46.2839 40.7C46.5906 40.5 46.8239 40.21 46.9839 39.83C47.1506 39.45 47.2339 38.9967 47.2339 38.47C47.2339 37.67 47.0539 37.05 46.6939 36.61C46.3406 36.17 45.8372 35.95 45.1839 35.95C44.7572 35.95 44.3906 36.05 44.0839 36.25C43.7772 36.4433 43.5406 36.73 43.3739 37.11C43.2139 37.4833 43.1339 37.9367 43.1339 38.47C43.1339 39.2633 43.3139 39.8833 43.6739 40.33C44.0339 40.7767 44.5372 41 45.1839 41ZM51.5455 42.1C51.2588 42.1 50.9555 42.07 50.6355 42.01C50.3155 41.95 50.0288 41.8467 49.7755 41.7C49.6688 41.6333 49.5921 41.5567 49.5455 41.47C49.5055 41.3767 49.4888 41.2867 49.4955 41.2C49.5088 41.1067 49.5421 41.0267 49.5955 40.96C49.6555 40.8933 49.7288 40.85 49.8155 40.83C49.9088 40.81 50.0088 40.8267 50.1155 40.88C50.3821 41.0067 50.6321 41.0967 50.8655 41.15C51.0988 41.1967 51.3288 41.22 51.5555 41.22C51.8755 41.22 52.1121 41.1667 52.2655 41.06C52.4255 40.9467 52.5055 40.8 52.5055 40.62C52.5055 40.4667 52.4521 40.35 52.3455 40.27C52.2455 40.1833 52.0921 40.12 51.8855 40.08L50.8855 39.89C50.4721 39.81 50.1555 39.66 49.9355 39.44C49.7221 39.2133 49.6155 38.9233 49.6155 38.57C49.6155 38.25 49.7021 37.9733 49.8755 37.74C50.0555 37.5067 50.3021 37.3267 50.6155 37.2C50.9288 37.0733 51.2888 37.01 51.6955 37.01C51.9888 37.01 52.2621 37.0433 52.5155 37.11C52.7755 37.17 53.0255 37.2667 53.2655 37.4C53.3655 37.4533 53.4321 37.5233 53.4655 37.61C53.5055 37.6967 53.5155 37.7867 53.4955 37.88C53.4755 37.9667 53.4355 38.0467 53.3755 38.12C53.3155 38.1867 53.2388 38.23 53.1455 38.25C53.0588 38.2633 52.9588 38.2433 52.8455 38.19C52.6388 38.0833 52.4388 38.0067 52.2455 37.96C52.0588 37.9133 51.8788 37.89 51.7055 37.89C51.3788 37.89 51.1355 37.9467 50.9755 38.06C50.8221 38.1733 50.7455 38.3233 50.7455 38.51C50.7455 38.65 50.7921 38.7667 50.8855 38.86C50.9788 38.9533 51.1221 39.0167 51.3155 39.05L52.3155 39.24C52.7488 39.32 53.0755 39.4667 53.2955 39.68C53.5221 39.8933 53.6355 40.18 53.6355 40.54C53.6355 41.0267 53.4455 41.41 53.0655 41.69C52.6855 41.9633 52.1788 42.1 51.5455 42.1Z" fill="#F6F6F6"/>
</g>
</g>
<defs>
<linearGradient id="paint0_linear_434_531" x1="157.822" y1="69" x2="38.4999" y2="220" gradientUnits="userSpaceOnUse">
<stop offset="0.0682326" stop-color="#FF8A82"/>
<stop offset="0.671993" stop-color="#F07067"/>
</linearGradient>
<linearGradient id="paint1_linear_434_531" x1="53.5" y1="33.5" x2="-60" y2="117" gradientUnits="userSpaceOnUse">
<stop stop-color="#FF8A82"/>
<stop offset="1" stop-color="#F07067"/>
</linearGradient>
</defs>
</svg>
