<svg width="60" height="60" viewBox="0 0 60 60" fill="none" xmlns="http://www.w3.org/2000/svg">
<rect x="57.5" y="57.5" width="55" height="55" rx="16.5" transform="rotate(-180 57.5 57.5)" fill="#8596FF" stroke="#F5F5F5" stroke-width="5"/>
<mask id="mask0_291_1166" style="mask-type:alpha" maskUnits="userSpaceOnUse" x="4" y="4" width="52" height="52">
<rect x="53.2464" y="56.317" width="50.5006" height="50.5006" rx="22" transform="rotate(-176.495 53.2464 56.317)" fill="#FF7700"/>
</mask>
<g mask="url(#mask0_291_1166)">
<rect x="3.4628" y="60.6731" width="12.7728" height="68.0786" transform="rotate(-131.495 3.4628 60.6731)" fill="#677CFB" fill-opacity="0.5"/>
</g>
<path d="M27.8899 39.6129C27.5437 39.959 27.0742 40.1534 26.5847 40.1534C26.0952 40.1534 25.6257 39.959 25.2795 39.6129L16.9718 31.3052C16.6257 30.959 16.4312 30.4895 16.4312 30C16.4312 29.5105 16.6257 29.041 16.9718 28.6948L25.2795 20.3871C25.6277 20.0508 26.094 19.8647 26.578 19.8689C27.0621 19.8731 27.5251 20.0673 27.8674 20.4096C28.2097 20.7518 28.4039 21.2149 28.4081 21.6989C28.4123 22.183 28.2262 22.6493 27.8899 22.9975L22.8924 28.1538L40.4308 28.1538C40.9205 28.1538 41.3901 28.3483 41.7363 28.6946C42.0825 29.0408 42.277 29.5104 42.277 30C42.277 30.4896 42.0825 30.9592 41.7363 31.3054C41.3901 31.6516 40.9205 31.8461 40.4308 31.8461L22.8924 31.8461L27.8899 37.0025C28.236 37.3487 28.4305 37.8181 28.4305 38.3077C28.4305 38.7972 28.236 39.2667 27.8899 39.6129Z" fill="#F5F5F5"/>
</svg>
