<svg width="430" height="440" viewBox="0 0 430 440" fill="none" xmlns="http://www.w3.org/2000/svg">
<path d="M-16 -88.9811C-16 -101.684 -5.70255 -111.981 7 -111.981H646C658.703 -111.981 669 -101.684 669 -88.9811V274.492C669 284.999 661.879 294.171 651.699 296.775L102.137 437.322C97.8064 438.429 93.2468 438.251 89.0159 436.808L-35.6785 394.293C-48.6531 389.869 -54.9021 375.15 -49.0729 362.743L-18.1831 296.996C-16.7454 293.936 -16 290.597 -16 287.216V-88.9811Z" fill="#677CFB"/>
<path d="M87.9486 180.712C9.99133 225.721 -92.7823 193.659 -141.603 109.099C-190.423 24.5397 -166.803 -80.496 -88.8459 -125.505C-10.8886 -170.513 91.885 -138.451 140.705 -53.8915C189.526 30.668 165.906 135.704 87.9486 180.712ZM-60.2498 -75.9748C-112.988 -45.5262 -128.967 25.531 -95.9401 82.7359C-62.9128 139.941 6.61406 161.631 59.3525 131.183C112.091 100.734 128.07 29.6768 95.0428 -27.5282C62.0156 -84.7331 -7.51134 -106.423 -60.2498 -75.9748Z" fill="url(#paint0_linear_405_980)" fill-opacity="0.5"/>
<path d="M300.185 240.952C276.887 154.002 334.456 63.029 428.77 37.7577C523.084 12.4864 618.428 62.4868 641.726 149.437C665.024 236.387 607.454 327.36 513.141 352.632C418.827 377.903 323.483 327.902 300.185 240.952ZM586.482 164.239C570.721 105.417 506.221 71.5916 442.417 88.6877C378.613 105.784 339.667 167.328 355.428 226.15C371.19 284.972 435.69 318.798 499.494 301.702C563.298 284.605 602.244 223.061 586.482 164.239Z" fill="url(#paint1_linear_405_980)" fill-opacity="0.5"/>
<defs>
<linearGradient id="paint0_linear_405_980" x1="98.7853" y1="-103.593" x2="-132.704" y2="-86.9348" gradientUnits="userSpaceOnUse">
<stop stop-color="#8495FF"/>
<stop offset="1" stop-color="#677CFB"/>
</linearGradient>
<linearGradient id="paint1_linear_405_980" x1="571.998" y1="325.003" x2="615.821" y2="97.0907" gradientUnits="userSpaceOnUse">
<stop stop-color="#8495FF"/>
<stop offset="1" stop-color="#677CFB"/>
</linearGradient>
</defs>
</svg>
