<svg width="21" height="21" viewBox="0 0 21 21" fill="none" xmlns="http://www.w3.org/2000/svg">
<path d="M16.625 14.875H4.375C3.40987 14.875 2.625 15.6599 2.625 16.625C2.625 17.5901 3.40987 18.375 4.375 18.375H16.625C17.5901 18.375 18.375 17.5901 18.375 16.625C18.375 15.6599 17.5901 14.875 16.625 14.875ZM16.625 8.75H4.375C3.40987 8.75 2.625 9.53487 2.625 10.5C2.625 11.4651 3.40987 12.25 4.375 12.25H16.625C17.5901 12.25 18.375 11.4651 18.375 10.5C18.375 9.53487 17.5901 8.75 16.625 8.75ZM16.625 2.625H4.375C3.40987 2.625 2.625 3.40987 2.625 4.375C2.625 5.34013 3.40987 6.125 4.375 6.125H16.625C17.5901 6.125 18.375 5.34013 18.375 4.375C18.375 3.40987 17.5901 2.625 16.625 2.625Z" fill="#0A1F3E"/>
</svg>
