<svg width="71" height="25" viewBox="0 0 71 25" fill="none" xmlns="http://www.w3.org/2000/svg">
<rect x="1" y="1" width="69" height="23" rx="11.5" fill="#F6F6F6" stroke="#D0D8F8" stroke-width="2"/>
<path d="M14.84 16.12C14.488 16.12 14.136 16.092 13.784 16.036C13.432 15.988 13.1 15.912 12.788 15.808C12.476 15.696 12.196 15.56 11.948 15.4C11.804 15.304 11.704 15.188 11.648 15.052C11.592 14.916 11.572 14.784 11.588 14.656C11.612 14.52 11.664 14.404 11.744 14.308C11.832 14.204 11.94 14.14 12.068 14.116C12.196 14.092 12.336 14.128 12.488 14.224C12.84 14.432 13.212 14.584 13.604 14.68C13.996 14.776 14.408 14.824 14.84 14.824C15.472 14.824 15.932 14.72 16.22 14.512C16.508 14.296 16.652 14.02 16.652 13.684C16.652 13.404 16.548 13.184 16.34 13.024C16.14 12.864 15.792 12.732 15.296 12.628L13.976 12.352C13.216 12.192 12.648 11.924 12.272 11.548C11.904 11.164 11.72 10.66 11.72 10.036C11.72 9.644 11.8 9.288 11.96 8.968C12.12 8.648 12.344 8.372 12.632 8.14C12.928 7.908 13.276 7.732 13.676 7.612C14.084 7.484 14.532 7.42 15.02 7.42C15.5 7.42 15.956 7.48 16.388 7.6C16.82 7.72 17.208 7.896 17.552 8.128C17.68 8.216 17.764 8.324 17.804 8.452C17.852 8.58 17.864 8.708 17.84 8.836C17.816 8.956 17.76 9.06 17.672 9.148C17.584 9.236 17.472 9.288 17.336 9.304C17.208 9.32 17.06 9.28 16.892 9.184C16.596 9.016 16.296 8.896 15.992 8.824C15.688 8.752 15.36 8.716 15.008 8.716C14.64 8.716 14.324 8.768 14.06 8.872C13.796 8.976 13.592 9.124 13.448 9.316C13.312 9.5 13.244 9.72 13.244 9.976C13.244 10.264 13.34 10.496 13.532 10.672C13.724 10.84 14.052 10.972 14.516 11.068L15.824 11.344C16.616 11.512 17.204 11.776 17.588 12.136C17.98 12.496 18.176 12.976 18.176 13.576C18.176 13.96 18.096 14.308 17.936 14.62C17.784 14.932 17.56 15.2 17.264 15.424C16.976 15.648 16.628 15.82 16.22 15.94C15.812 16.06 15.352 16.12 14.84 16.12ZM20.0943 16.096C19.8543 16.096 19.6703 16.032 19.5423 15.904C19.4143 15.768 19.3503 15.576 19.3503 15.328V8.2C19.3503 7.952 19.4143 7.764 19.5423 7.636C19.6703 7.508 19.8543 7.444 20.0943 7.444C20.3343 7.444 20.5183 7.508 20.6463 7.636C20.7823 7.764 20.8503 7.952 20.8503 8.2V11.308H20.6823C20.8583 10.884 21.1303 10.564 21.4983 10.348C21.8743 10.124 22.2983 10.012 22.7703 10.012C23.2423 10.012 23.6303 10.1 23.9343 10.276C24.2383 10.452 24.4663 10.72 24.6183 11.08C24.7703 11.432 24.8463 11.88 24.8463 12.424V15.328C24.8463 15.576 24.7823 15.768 24.6543 15.904C24.5263 16.032 24.3423 16.096 24.1023 16.096C23.8623 16.096 23.6743 16.032 23.5383 15.904C23.4103 15.768 23.3463 15.576 23.3463 15.328V12.496C23.3463 12.04 23.2583 11.708 23.0823 11.5C22.9143 11.292 22.6503 11.188 22.2903 11.188C21.8503 11.188 21.4983 11.328 21.2343 11.608C20.9783 11.88 20.8503 12.244 20.8503 12.7V15.328C20.8503 15.84 20.5983 16.096 20.0943 16.096ZM29.0458 16.12C28.4378 16.12 27.9098 15.996 27.4618 15.748C27.0138 15.5 26.6658 15.148 26.4178 14.692C26.1698 14.228 26.0458 13.684 26.0458 13.06C26.0458 12.588 26.1138 12.168 26.2498 11.8C26.3938 11.424 26.5978 11.104 26.8618 10.84C27.1258 10.568 27.4418 10.364 27.8098 10.228C28.1778 10.084 28.5898 10.012 29.0458 10.012C29.6538 10.012 30.1818 10.136 30.6298 10.384C31.0778 10.632 31.4258 10.984 31.6738 11.44C31.9218 11.896 32.0458 12.436 32.0458 13.06C32.0458 13.532 31.9738 13.956 31.8298 14.332C31.6938 14.708 31.4938 15.032 31.2298 15.304C30.9658 15.568 30.6498 15.772 30.2818 15.916C29.9138 16.052 29.5018 16.12 29.0458 16.12ZM29.0458 14.98C29.3418 14.98 29.6018 14.908 29.8258 14.764C30.0498 14.62 30.2218 14.408 30.3418 14.128C30.4698 13.84 30.5338 13.484 30.5338 13.06C30.5338 12.42 30.3978 11.944 30.1258 11.632C29.8538 11.312 29.4938 11.152 29.0458 11.152C28.7498 11.152 28.4898 11.224 28.2658 11.368C28.0418 11.504 27.8658 11.716 27.7378 12.004C27.6178 12.284 27.5578 12.636 27.5578 13.06C27.5578 13.692 27.6938 14.172 27.9658 14.5C28.2378 14.82 28.5978 14.98 29.0458 14.98ZM35.4347 16.096C35.2347 16.096 35.0627 16.048 34.9187 15.952C34.7747 15.848 34.6587 15.688 34.5707 15.472L32.8307 11.032C32.7587 10.84 32.7347 10.672 32.7587 10.528C32.7907 10.376 32.8667 10.256 32.9867 10.168C33.1067 10.08 33.2667 10.036 33.4667 10.036C33.6427 10.036 33.7867 10.08 33.8987 10.168C34.0107 10.248 34.1067 10.404 34.1867 10.636L35.6387 14.632H35.3627L36.8627 10.54C36.9267 10.364 37.0107 10.236 37.1147 10.156C37.2267 10.076 37.3707 10.036 37.5467 10.036C37.7227 10.036 37.8667 10.08 37.9787 10.168C38.0907 10.248 38.1747 10.372 38.2307 10.54L39.7067 14.632H39.4547L40.9187 10.6C40.9987 10.384 41.0987 10.236 41.2187 10.156C41.3467 10.076 41.4867 10.036 41.6387 10.036C41.8307 10.036 41.9787 10.084 42.0827 10.18C42.1867 10.276 42.2467 10.4 42.2627 10.552C42.2787 10.696 42.2507 10.856 42.1787 11.032L40.4507 15.472C40.3707 15.68 40.2547 15.836 40.1027 15.94C39.9587 16.044 39.7867 16.096 39.5867 16.096C39.3867 16.096 39.2107 16.044 39.0587 15.94C38.9147 15.836 38.8027 15.68 38.7227 15.472L37.1507 11.308H37.8347L36.2987 15.46C36.2187 15.676 36.1067 15.836 35.9627 15.94C35.8187 16.044 35.6427 16.096 35.4347 16.096ZM48.587 16.12C48.163 16.12 47.783 16.04 47.447 15.88C47.119 15.712 46.859 15.488 46.667 15.208C46.483 14.928 46.391 14.612 46.391 14.26C46.391 13.828 46.503 13.488 46.727 13.24C46.951 12.984 47.315 12.8 47.819 12.688C48.323 12.576 48.999 12.52 49.847 12.52H50.447V13.384H49.859C49.363 13.384 48.967 13.408 48.671 13.456C48.375 13.504 48.163 13.588 48.035 13.708C47.915 13.82 47.855 13.98 47.855 14.188C47.855 14.452 47.947 14.668 48.131 14.836C48.315 15.004 48.571 15.088 48.899 15.088C49.163 15.088 49.395 15.028 49.595 14.908C49.803 14.78 49.967 14.608 50.087 14.392C50.207 14.176 50.267 13.928 50.267 13.648V12.268C50.267 11.868 50.179 11.58 50.003 11.404C49.827 11.228 49.531 11.14 49.115 11.14C48.883 11.14 48.631 11.168 48.359 11.224C48.095 11.28 47.815 11.376 47.519 11.512C47.367 11.584 47.231 11.604 47.111 11.572C46.999 11.54 46.911 11.476 46.847 11.38C46.783 11.276 46.751 11.164 46.751 11.044C46.751 10.924 46.783 10.808 46.847 10.696C46.911 10.576 47.019 10.488 47.171 10.432C47.539 10.28 47.891 10.172 48.227 10.108C48.571 10.044 48.883 10.012 49.163 10.012C49.739 10.012 50.211 10.1 50.579 10.276C50.955 10.452 51.235 10.72 51.419 11.08C51.603 11.432 51.695 11.888 51.695 12.448V15.328C51.695 15.576 51.635 15.768 51.515 15.904C51.395 16.032 51.223 16.096 50.999 16.096C50.775 16.096 50.599 16.032 50.471 15.904C50.351 15.768 50.291 15.576 50.291 15.328V14.752H50.387C50.331 15.032 50.219 15.276 50.051 15.484C49.891 15.684 49.687 15.84 49.439 15.952C49.191 16.064 48.907 16.12 48.587 16.12ZM55.2215 16.12C54.5575 16.12 54.0575 15.932 53.7215 15.556C53.3855 15.172 53.2175 14.612 53.2175 13.876V8.2C53.2175 7.952 53.2815 7.764 53.4095 7.636C53.5375 7.508 53.7215 7.444 53.9615 7.444C54.2015 7.444 54.3855 7.508 54.5135 7.636C54.6495 7.764 54.7175 7.952 54.7175 8.2V13.804C54.7175 14.172 54.7935 14.444 54.9455 14.62C55.1055 14.796 55.3295 14.884 55.6175 14.884C55.6815 14.884 55.7415 14.884 55.7975 14.884C55.8535 14.876 55.9095 14.868 55.9655 14.86C56.0775 14.844 56.1535 14.876 56.1935 14.956C56.2335 15.028 56.2535 15.18 56.2535 15.412C56.2535 15.612 56.2135 15.768 56.1335 15.88C56.0535 15.992 55.9215 16.06 55.7375 16.084C55.6575 16.092 55.5735 16.1 55.4855 16.108C55.3975 16.116 55.3095 16.12 55.2215 16.12ZM59.0535 16.12C58.3895 16.12 57.8895 15.932 57.5535 15.556C57.2175 15.172 57.0495 14.612 57.0495 13.876V8.2C57.0495 7.952 57.1135 7.764 57.2415 7.636C57.3695 7.508 57.5535 7.444 57.7935 7.444C58.0335 7.444 58.2175 7.508 58.3455 7.636C58.4815 7.764 58.5495 7.952 58.5495 8.2V13.804C58.5495 14.172 58.6255 14.444 58.7775 14.62C58.9375 14.796 59.1615 14.884 59.4495 14.884C59.5135 14.884 59.5735 14.884 59.6295 14.884C59.6855 14.876 59.7415 14.868 59.7975 14.86C59.9095 14.844 59.9855 14.876 60.0255 14.956C60.0655 15.028 60.0855 15.18 60.0855 15.412C60.0855 15.612 60.0455 15.768 59.9655 15.88C59.8855 15.992 59.7535 16.06 59.5695 16.084C59.4895 16.092 59.4055 16.1 59.3175 16.108C59.2295 16.116 59.1415 16.12 59.0535 16.12Z" fill="#A5ACCA"/>
</svg>
