<svg width="177" height="43" viewBox="0 0 177 43" fill="none" xmlns="http://www.w3.org/2000/svg">
<rect y="4.77777" width="177" height="38.2222" rx="9" fill="#4A57A5"/>
<rect width="177" height="39.1778" rx="9" fill="#677CFB"/>
<mask id="mask0_149_7650" style="mask-type:alpha" maskUnits="userSpaceOnUse" x="0" y="0" width="177" height="40">
<rect y="1.52588e-05" width="177" height="39.1778" rx="9" fill="#677CFB"/>
</mask>
<g mask="url(#mask0_149_7650)">
<path d="M127.417 -22.4737C128.843 -23.3166 131.039 -23.1501 132.322 -22.1016L222.542 51.625C223.825 52.6734 223.709 54.2067 222.283 55.0496L209.693 62.4895C208.266 63.3324 206.07 63.1658 204.787 62.1174L114.567 -11.6093C113.284 -12.6577 113.4 -14.1909 114.827 -15.0338L127.417 -22.4737Z" fill="#8495FF" fill-opacity="0.5"/>
<path d="M-29.437 -9.47373C-28.0106 -10.3166 -25.8142 -10.1501 -24.5313 -9.10164L65.6887 64.625C66.9717 65.6734 66.8554 67.2067 65.429 68.0496L52.839 75.4895C51.4126 76.3324 49.2162 76.1658 47.9332 75.1174L-42.2868 1.39075C-43.5697 0.34233 -43.4534 -1.1909 -42.027 -2.03382L-29.437 -9.47373Z" fill="#8495FF" fill-opacity="0.5"/>
</g>
<path d="M47.4 25.596C47.184 25.596 47.008 25.544 46.872 25.44C46.744 25.336 46.64 25.172 46.56 24.948L44.052 17.856C43.964 17.6 43.98 17.384 44.1 17.208C44.228 17.032 44.44 16.944 44.736 16.944C44.952 16.944 45.12 16.996 45.24 17.1C45.36 17.196 45.456 17.352 45.528 17.568L47.688 23.976H47.208L49.464 17.58C49.544 17.364 49.644 17.204 49.764 17.1C49.884 16.996 50.04 16.944 50.232 16.944C50.424 16.944 50.576 16.996 50.688 17.1C50.8 17.204 50.896 17.368 50.976 17.592L53.16 23.976H52.74L54.936 17.568C55.008 17.36 55.104 17.204 55.224 17.1C55.344 16.996 55.508 16.944 55.716 16.944C55.972 16.944 56.16 17.032 56.28 17.208C56.4 17.384 56.416 17.6 56.328 17.856L53.796 24.96C53.716 25.176 53.612 25.336 53.484 25.44C53.356 25.544 53.184 25.596 52.968 25.596C52.752 25.596 52.58 25.544 52.452 25.44C52.324 25.336 52.22 25.172 52.14 24.948L50.052 18.996H50.328L48.216 24.96C48.136 25.176 48.032 25.336 47.904 25.44C47.784 25.544 47.616 25.596 47.4 25.596ZM58.8565 25.62C58.4325 25.62 58.0525 25.54 57.7165 25.38C57.3885 25.212 57.1285 24.988 56.9365 24.708C56.7525 24.428 56.6605 24.112 56.6605 23.76C56.6605 23.328 56.7725 22.988 56.9965 22.74C57.2205 22.484 57.5845 22.3 58.0885 22.188C58.5925 22.076 59.2685 22.02 60.1165 22.02H60.7165V22.884H60.1285C59.6325 22.884 59.2365 22.908 58.9405 22.956C58.6445 23.004 58.4325 23.088 58.3045 23.208C58.1845 23.32 58.1245 23.48 58.1245 23.688C58.1245 23.952 58.2165 24.168 58.4005 24.336C58.5845 24.504 58.8405 24.588 59.1685 24.588C59.4325 24.588 59.6645 24.528 59.8645 24.408C60.0725 24.28 60.2365 24.108 60.3565 23.892C60.4765 23.676 60.5365 23.428 60.5365 23.148V21.768C60.5365 21.368 60.4485 21.08 60.2725 20.904C60.0965 20.728 59.8005 20.64 59.3845 20.64C59.1525 20.64 58.9005 20.668 58.6285 20.724C58.3645 20.78 58.0845 20.876 57.7885 21.012C57.6365 21.084 57.5005 21.104 57.3805 21.072C57.2685 21.04 57.1805 20.976 57.1165 20.88C57.0525 20.776 57.0205 20.664 57.0205 20.544C57.0205 20.424 57.0525 20.308 57.1165 20.196C57.1805 20.076 57.2885 19.988 57.4405 19.932C57.8085 19.78 58.1605 19.672 58.4965 19.608C58.8405 19.544 59.1525 19.512 59.4325 19.512C60.0085 19.512 60.4805 19.6 60.8485 19.776C61.2245 19.952 61.5045 20.22 61.6885 20.58C61.8725 20.932 61.9645 21.388 61.9645 21.948V24.828C61.9645 25.076 61.9045 25.268 61.7845 25.404C61.6645 25.532 61.4925 25.596 61.2685 25.596C61.0445 25.596 60.8685 25.532 60.7405 25.404C60.6205 25.268 60.5605 25.076 60.5605 24.828V24.252H60.6565C60.6005 24.532 60.4885 24.776 60.3205 24.984C60.1605 25.184 59.9565 25.34 59.7085 25.452C59.4605 25.564 59.1765 25.62 58.8565 25.62ZM64.255 25.596C64.007 25.596 63.815 25.532 63.679 25.404C63.551 25.268 63.487 25.076 63.487 24.828V20.292C63.487 20.044 63.551 19.856 63.679 19.728C63.807 19.6 63.987 19.536 64.219 19.536C64.451 19.536 64.631 19.6 64.759 19.728C64.887 19.856 64.951 20.044 64.951 20.292V21.048H64.831C64.943 20.568 65.163 20.204 65.491 19.956C65.819 19.708 66.255 19.56 66.799 19.512C66.967 19.496 67.099 19.54 67.195 19.644C67.299 19.74 67.359 19.892 67.375 20.1C67.391 20.3 67.343 20.464 67.231 20.592C67.127 20.712 66.967 20.784 66.751 20.808L66.487 20.832C65.999 20.88 65.631 21.032 65.383 21.288C65.135 21.536 65.011 21.888 65.011 22.344V24.828C65.011 25.076 64.947 25.268 64.819 25.404C64.691 25.532 64.503 25.596 64.255 25.596ZM68.9543 25.596C68.7143 25.596 68.5303 25.532 68.4023 25.404C68.2743 25.268 68.2103 25.076 68.2103 24.828V20.292C68.2103 20.044 68.2743 19.856 68.4023 19.728C68.5303 19.6 68.7103 19.536 68.9423 19.536C69.1743 19.536 69.3543 19.6 69.4823 19.728C69.6103 19.856 69.6743 20.044 69.6743 20.292V21.168L69.5423 20.808C69.7023 20.408 69.9503 20.092 70.2863 19.86C70.6223 19.628 71.0223 19.512 71.4863 19.512C71.9583 19.512 72.3463 19.624 72.6503 19.848C72.9543 20.072 73.1663 20.416 73.2863 20.88H73.1183C73.2783 20.456 73.5423 20.124 73.9103 19.884C74.2783 19.636 74.7023 19.512 75.1823 19.512C75.6303 19.512 75.9983 19.6 76.2863 19.776C76.5823 19.952 76.8023 20.22 76.9463 20.58C77.0903 20.932 77.1623 21.38 77.1623 21.924V24.828C77.1623 25.076 77.0943 25.268 76.9583 25.404C76.8303 25.532 76.6463 25.596 76.4063 25.596C76.1663 25.596 75.9823 25.532 75.8543 25.404C75.7263 25.268 75.6623 25.076 75.6623 24.828V21.984C75.6623 21.536 75.5863 21.208 75.4343 21C75.2903 20.792 75.0423 20.688 74.6903 20.688C74.2983 20.688 73.9903 20.828 73.7663 21.108C73.5423 21.38 73.4303 21.76 73.4303 22.248V24.828C73.4303 25.076 73.3663 25.268 73.2383 25.404C73.1103 25.532 72.9263 25.596 72.6863 25.596C72.4463 25.596 72.2583 25.532 72.1223 25.404C71.9943 25.268 71.9303 25.076 71.9303 24.828V21.984C71.9303 21.536 71.8543 21.208 71.7023 21C71.5583 20.792 71.3143 20.688 70.9703 20.688C70.5783 20.688 70.2703 20.828 70.0463 21.108C69.8223 21.38 69.7103 21.76 69.7103 22.248V24.828C69.7103 25.34 69.4583 25.596 68.9543 25.596ZM85.6275 25.62C85.0435 25.62 84.5275 25.544 84.0795 25.392C83.6395 25.24 83.2675 25.016 82.9635 24.72C82.6595 24.416 82.4315 24.04 82.2795 23.592C82.1275 23.144 82.0515 22.624 82.0515 22.032V17.724C82.0515 17.46 82.1155 17.264 82.2435 17.136C82.3795 17.008 82.5715 16.944 82.8195 16.944C83.0675 16.944 83.2555 17.008 83.3835 17.136C83.5195 17.264 83.5875 17.46 83.5875 17.724V22.02C83.5875 22.78 83.7595 23.352 84.1035 23.736C84.4555 24.112 84.9635 24.3 85.6275 24.3C86.2915 24.3 86.7955 24.112 87.1395 23.736C87.4835 23.352 87.6555 22.78 87.6555 22.02V17.724C87.6555 17.46 87.7195 17.264 87.8475 17.136C87.9835 17.008 88.1755 16.944 88.4235 16.944C88.6635 16.944 88.8475 17.008 88.9755 17.136C89.1115 17.264 89.1795 17.46 89.1795 17.724V22.032C89.1795 22.816 89.0435 23.476 88.7715 24.012C88.5075 24.548 88.1115 24.952 87.5835 25.224C87.0555 25.488 86.4035 25.62 85.6275 25.62ZM91.5709 27.756C91.3309 27.756 91.1469 27.692 91.0189 27.564C90.8909 27.436 90.8269 27.248 90.8269 27V20.292C90.8269 20.044 90.8909 19.856 91.0189 19.728C91.1469 19.6 91.3269 19.536 91.5589 19.536C91.7989 19.536 91.9829 19.6 92.1109 19.728C92.2389 19.856 92.3029 20.044 92.3029 20.292V21.228L92.1709 20.868C92.2909 20.46 92.5349 20.132 92.9029 19.884C93.2789 19.636 93.7149 19.512 94.2109 19.512C94.7229 19.512 95.1709 19.636 95.5549 19.884C95.9469 20.132 96.2509 20.484 96.4669 20.94C96.6829 21.388 96.7909 21.928 96.7909 22.56C96.7909 23.184 96.6829 23.728 96.4669 24.192C96.2509 24.648 95.9509 25 95.5669 25.248C95.1829 25.496 94.7309 25.62 94.2109 25.62C93.7229 25.62 93.2949 25.5 92.9269 25.26C92.5589 25.012 92.3109 24.692 92.1829 24.3H92.3269V27C92.3269 27.248 92.2589 27.436 92.1229 27.564C91.9949 27.692 91.8109 27.756 91.5709 27.756ZM93.7909 24.48C94.0869 24.48 94.3469 24.408 94.5709 24.264C94.7949 24.12 94.9669 23.908 95.0869 23.628C95.2149 23.34 95.2789 22.984 95.2789 22.56C95.2789 21.92 95.1429 21.444 94.8709 21.132C94.5989 20.812 94.2389 20.652 93.7909 20.652C93.4949 20.652 93.2349 20.724 93.0109 20.868C92.7869 21.004 92.6109 21.216 92.4829 21.504C92.3629 21.784 92.3029 22.136 92.3029 22.56C92.3029 23.192 92.4389 23.672 92.7109 24C92.9829 24.32 93.3429 24.48 93.7909 24.48ZM105.36 25.62C104.48 25.62 103.724 25.444 103.092 25.092C102.468 24.732 101.988 24.228 101.652 23.58C101.316 22.924 101.148 22.152 101.148 21.264C101.148 20.6 101.244 20.004 101.436 19.476C101.628 18.94 101.904 18.484 102.264 18.108C102.624 17.724 103.064 17.432 103.584 17.232C104.112 17.024 104.704 16.92 105.36 16.92C105.8 16.92 106.232 16.976 106.656 17.088C107.08 17.2 107.452 17.36 107.772 17.568C107.94 17.672 108.052 17.8 108.108 17.952C108.164 18.096 108.176 18.24 108.144 18.384C108.112 18.52 108.044 18.636 107.94 18.732C107.844 18.828 107.72 18.884 107.568 18.9C107.424 18.908 107.264 18.856 107.088 18.744C106.84 18.584 106.572 18.468 106.284 18.396C105.996 18.324 105.704 18.288 105.408 18.288C104.84 18.288 104.36 18.404 103.968 18.636C103.576 18.868 103.28 19.204 103.08 19.644C102.88 20.084 102.78 20.624 102.78 21.264C102.78 21.896 102.88 22.436 103.08 22.884C103.28 23.332 103.576 23.672 103.968 23.904C104.36 24.136 104.84 24.252 105.408 24.252C105.712 24.252 106.012 24.216 106.308 24.144C106.604 24.064 106.884 23.944 107.148 23.784C107.324 23.68 107.48 23.636 107.616 23.652C107.76 23.66 107.88 23.708 107.976 23.796C108.072 23.884 108.136 23.996 108.168 24.132C108.2 24.26 108.192 24.396 108.144 24.54C108.096 24.676 108 24.796 107.856 24.9C107.536 25.132 107.152 25.312 106.704 25.44C106.264 25.56 105.816 25.62 105.36 25.62ZM111.157 25.62C110.733 25.62 110.353 25.54 110.017 25.38C109.689 25.212 109.429 24.988 109.237 24.708C109.053 24.428 108.961 24.112 108.961 23.76C108.961 23.328 109.073 22.988 109.297 22.74C109.521 22.484 109.885 22.3 110.389 22.188C110.893 22.076 111.569 22.02 112.417 22.02H113.017V22.884H112.429C111.933 22.884 111.537 22.908 111.241 22.956C110.945 23.004 110.733 23.088 110.605 23.208C110.485 23.32 110.425 23.48 110.425 23.688C110.425 23.952 110.517 24.168 110.701 24.336C110.885 24.504 111.141 24.588 111.469 24.588C111.733 24.588 111.965 24.528 112.165 24.408C112.373 24.28 112.537 24.108 112.657 23.892C112.777 23.676 112.837 23.428 112.837 23.148V21.768C112.837 21.368 112.749 21.08 112.573 20.904C112.397 20.728 112.101 20.64 111.685 20.64C111.453 20.64 111.201 20.668 110.929 20.724C110.665 20.78 110.385 20.876 110.089 21.012C109.937 21.084 109.801 21.104 109.681 21.072C109.569 21.04 109.481 20.976 109.417 20.88C109.353 20.776 109.321 20.664 109.321 20.544C109.321 20.424 109.353 20.308 109.417 20.196C109.481 20.076 109.589 19.988 109.741 19.932C110.109 19.78 110.461 19.672 110.797 19.608C111.141 19.544 111.453 19.512 111.733 19.512C112.309 19.512 112.781 19.6 113.149 19.776C113.525 19.952 113.805 20.22 113.989 20.58C114.173 20.932 114.265 21.388 114.265 21.948V24.828C114.265 25.076 114.205 25.268 114.085 25.404C113.965 25.532 113.793 25.596 113.569 25.596C113.345 25.596 113.169 25.532 113.041 25.404C112.921 25.268 112.861 25.076 112.861 24.828V24.252H112.957C112.901 24.532 112.789 24.776 112.621 24.984C112.461 25.184 112.257 25.34 112.009 25.452C111.761 25.564 111.477 25.62 111.157 25.62ZM116.556 25.596C116.308 25.596 116.116 25.532 115.98 25.404C115.852 25.268 115.788 25.076 115.788 24.828V20.292C115.788 20.044 115.852 19.856 115.98 19.728C116.108 19.6 116.288 19.536 116.52 19.536C116.752 19.536 116.932 19.6 117.06 19.728C117.188 19.856 117.252 20.044 117.252 20.292V21.048H117.132C117.244 20.568 117.464 20.204 117.792 19.956C118.12 19.708 118.556 19.56 119.1 19.512C119.268 19.496 119.4 19.54 119.496 19.644C119.6 19.74 119.66 19.892 119.676 20.1C119.692 20.3 119.644 20.464 119.532 20.592C119.428 20.712 119.268 20.784 119.052 20.808L118.788 20.832C118.3 20.88 117.932 21.032 117.684 21.288C117.436 21.536 117.312 21.888 117.312 22.344V24.828C117.312 25.076 117.248 25.268 117.12 25.404C116.992 25.532 116.804 25.596 116.556 25.596ZM122.649 25.62C122.137 25.62 121.685 25.496 121.293 25.248C120.909 25 120.609 24.648 120.393 24.192C120.177 23.728 120.069 23.184 120.069 22.56C120.069 21.928 120.177 21.388 120.393 20.94C120.609 20.484 120.909 20.132 121.293 19.884C121.685 19.636 122.137 19.512 122.649 19.512C123.137 19.512 123.561 19.632 123.921 19.872C124.289 20.112 124.537 20.428 124.665 20.82H124.533V17.7C124.533 17.452 124.597 17.264 124.725 17.136C124.853 17.008 125.037 16.944 125.277 16.944C125.517 16.944 125.701 17.008 125.829 17.136C125.965 17.264 126.033 17.452 126.033 17.7V24.828C126.033 25.076 125.969 25.268 125.841 25.404C125.713 25.532 125.529 25.596 125.289 25.596C125.049 25.596 124.865 25.532 124.737 25.404C124.609 25.268 124.545 25.076 124.545 24.828V23.892L124.677 24.252C124.557 24.668 124.313 25 123.945 25.248C123.577 25.496 123.145 25.62 122.649 25.62ZM123.069 24.48C123.365 24.48 123.625 24.408 123.849 24.264C124.073 24.12 124.245 23.908 124.365 23.628C124.493 23.34 124.557 22.984 124.557 22.56C124.557 21.92 124.421 21.444 124.149 21.132C123.877 20.812 123.517 20.652 123.069 20.652C122.773 20.652 122.513 20.724 122.289 20.868C122.065 21.004 121.889 21.216 121.761 21.504C121.641 21.784 121.581 22.136 121.581 22.56C121.581 23.192 121.717 23.672 121.989 24C122.261 24.32 122.621 24.48 123.069 24.48ZM129.737 25.62C129.393 25.62 129.029 25.584 128.645 25.512C128.261 25.44 127.917 25.316 127.613 25.14C127.485 25.06 127.393 24.968 127.337 24.864C127.289 24.752 127.269 24.644 127.277 24.54C127.293 24.428 127.333 24.332 127.397 24.252C127.469 24.172 127.557 24.12 127.661 24.096C127.773 24.072 127.893 24.092 128.021 24.156C128.341 24.308 128.641 24.416 128.921 24.48C129.201 24.536 129.477 24.564 129.749 24.564C130.133 24.564 130.417 24.5 130.601 24.372C130.793 24.236 130.889 24.06 130.889 23.844C130.889 23.66 130.825 23.52 130.697 23.424C130.577 23.32 130.393 23.244 130.145 23.196L128.945 22.968C128.449 22.872 128.069 22.692 127.805 22.428C127.549 22.156 127.421 21.808 127.421 21.384C127.421 21 127.525 20.668 127.733 20.388C127.949 20.108 128.245 19.892 128.621 19.74C128.997 19.588 129.429 19.512 129.917 19.512C130.269 19.512 130.597 19.552 130.901 19.632C131.213 19.704 131.513 19.82 131.801 19.98C131.921 20.044 132.001 20.128 132.041 20.232C132.089 20.336 132.101 20.444 132.077 20.556C132.053 20.66 132.005 20.756 131.933 20.844C131.861 20.924 131.769 20.976 131.657 21C131.553 21.016 131.433 20.992 131.297 20.928C131.049 20.8 130.809 20.708 130.577 20.652C130.353 20.596 130.137 20.568 129.929 20.568C129.537 20.568 129.245 20.636 129.053 20.772C128.869 20.908 128.777 21.088 128.777 21.312C128.777 21.48 128.833 21.62 128.945 21.732C129.057 21.844 129.229 21.92 129.461 21.96L130.661 22.188C131.181 22.284 131.573 22.46 131.837 22.716C132.109 22.972 132.245 23.316 132.245 23.748C132.245 24.332 132.017 24.792 131.561 25.128C131.105 25.456 130.497 25.62 129.737 25.62Z" fill="#F5F5F5"/>
</svg>
